<?xml version="1.0" encoding="UTF-8" standalone="no"?>
<!-- Created with Inkscape (http://www.inkscape.org/) -->

<svg
   xmlns:dc="http://purl.org/dc/elements/1.1/"
   xmlns:cc="http://creativecommons.org/ns#"
   xmlns:rdf="http://www.w3.org/1999/02/22-rdf-syntax-ns#"
   xmlns:svg="http://www.w3.org/2000/svg"
   xmlns="http://www.w3.org/2000/svg"
   xmlns:sodipodi="http://sodipodi.sourceforge.net/DTD/sodipodi-0.dtd"
   xmlns:inkscape="http://www.inkscape.org/namespaces/inkscape"
   width="132.37631mm"
   height="96.623306mm"
   viewBox="0 0 132.37632 96.623306"
   version="1.1"
   id="svg7504"
   inkscape:version="0.92.3 (2405546, 2018-03-11)"
   sodipodi:docname="landing.svg">
  <defs
     id="defs7498" />
  <sodipodi:namedview
     id="base"
     pagecolor="#ffffff"
     bordercolor="#666666"
     borderopacity="1.0"
     inkscape:pageopacity="0.0"
     inkscape:pageshadow="2"
     inkscape:zoom="1.4"
     inkscape:cx="46.410529"
     inkscape:cy="83.094711"
     inkscape:document-units="mm"
     inkscape:current-layer="layer1"
     showgrid="false"
     inkscape:window-width="1920"
     inkscape:window-height="1052"
     inkscape:window-x="0"
     inkscape:window-y="0"
     inkscape:window-maximized="1"
     fit-margin-top="0"
     fit-margin-left="0"
     fit-margin-right="0"
     fit-margin-bottom="0" />
  <metadata
     id="metadata7501">
    <rdf:RDF>
      <cc:Work
         rdf:about="">
        <dc:format>image/svg+xml</dc:format>
        <dc:type
           rdf:resource="http://purl.org/dc/dcmitype/StillImage" />
        <dc:title />
      </cc:Work>
    </rdf:RDF>
  </metadata>
  <g
     inkscape:label="Layer 1"
     inkscape:groupmode="layer"
     id="layer1"
     transform="translate(283.90244,77.099297)">
    <rect
       id="rect3914"
       style="fill:#e6e6e6;stroke-width:0.265688;stroke:#00c157;stroke-opacity:1"
       height="0.066699326"
       width="132.29167"
       y="10.250134"
       x="-283.81781" />
    <path
       id="path3930"
       style="fill:#e6e6e6;stroke-width:0.265688;stroke:#00c157;stroke-opacity:1"
       d="m -221.11155,-1.6490234 h -51.0884 a 1.5107708,1.5234125 0 0 1 -1.50812,-1.5234126 v -72.416788 a 1.5107708,1.5234125 0 0 1 1.50812,-1.510073 h 51.0884 a 1.5107708,1.5234125 0 0 1 1.51077,1.523412 v 72.403449 a 1.5107708,1.5234125 0 0 1 -1.51077,1.5234126 z m -51.0884,-75.3969146 a 1.444625,1.4567132 0 0 0 -1.44198,1.456714 v 72.416788 a 1.444625,1.4567132 0 0 0 1.44198,1.4567132 h 51.0884 a 1.4472708,1.4593812 0 0 0 1.44462,-1.4567132 v -72.416788 a 1.4472708,1.4593812 0 0 0 -1.44462,-1.456714 z"
       inkscape:connector-curvature="0" />
    <path
       id="path3932"
       style="fill:#e6e6e6;stroke-width:0.265688;stroke:#00c157;stroke-opacity:1"
       d="m -163.87953,-1.6490234 h -51.09104 a 1.5134166,1.5260805 0 0 1 -1.51077,-1.5234126 v -72.416788 a 1.5134166,1.5260805 0 0 1 1.51077,-1.510073 h 51.09104 a 1.5107708,1.5234125 0 0 1 1.50548,1.510073 v 72.416788 a 1.5107708,1.5234125 0 0 1 -1.50548,1.5234126 z m -51.09104,-75.3969146 a 1.4472708,1.4593812 0 0 0 -1.44463,1.456714 v 72.416788 a 1.4472708,1.4593812 0 0 0 1.44463,1.4567132 h 51.09104 a 1.4472708,1.4593812 0 0 0 1.44462,-1.4567132 v -72.416788 a 1.4472708,1.4593812 0 0 0 -1.44462,-1.456714 z"
       inkscape:connector-curvature="0" />
    <rect
       id="rect3934"
       style="fill:#90fcc3;stroke-width:0.265688;fill-opacity:1"
       height="31.156588"
       width="68.630272"
       y="-72.086174"
       x="-268.57779" />
    <rect
       id="rect3936"
       style="fill:#b4fdd6;stroke-width:0.265688;fill-opacity:1"
       height="31.156588"
       width="69.39756"
       y="-72.086174"
       x="-267.90576" />
    <rect
       id="rect3938"
       style="fill:#90fcc3;stroke-width:0.265688;fill-opacity:1"
       height="2.6973205"
       width="68.630272"
       y="-40.929588"
       x="-268.57779" />
    <rect
       id="rect3940"
       style="fill:#b4fdd6;stroke-width:0.265688;fill-opacity:1"
       height="2.6973205"
       width="69.39756"
       y="-40.929588"
       x="-265.50598" />
    <rect
       id="rect3942"
       style="fill:#e4fef0;stroke-width:0.265688;fill-opacity:1"
       transform="rotate(90)"
       height="65.365311"
       width="27.090597"
       y="200.52432"
       x="-70.053185" />
    <polygon
       id="polygon3944"
       style="fill:#f2fef7;fill-opacity:1"
       points="159.78,81.41 180.88,81.41 136.18,182.95 115.07,182.95 "
       transform="matrix(0.26458333,0,0,0.26679729,-283.8178,-91.773148)" />
    <path
       id="path3946"
       style="fill:#90fcc3;stroke-width:0.265688;fill-opacity:1"
       d="m -264.95565,-47.727583 a 0.142875,0.14407054 0 0 1 -0.14288,-0.144071 v -20.86088 a 0.142875,0.14407054 0 0 1 0.28575,0 v 20.86088 a 0.142875,0.14407054 0 0 1 -0.14287,0.144071 z"
       inkscape:connector-curvature="0" />
    <polygon
       id="polygon3948"
       style="fill:#f2fef7;fill-opacity:1"
       points="185.42,81.41 193.65,81.41 148.94,182.95 140.71,182.95 "
       transform="matrix(0.26458333,0,0,0.26679729,-283.8178,-91.773148)" />
    <rect
       id="rect3950"
       style="fill:#90fcc3;stroke-width:0.265688;fill-opacity:1"
       transform="rotate(90)"
       height="0.25664583"
       width="27.090597"
       y="200.52168"
       x="-70.053177" />
    <polygon
       id="polygon3952"
       style="fill:#90fcc3;fill-opacity:1"
       points="64.84,91.15 64.14,84.37 323.53,84.37 324.23,91.15 "
       transform="matrix(0.26458333,0,0,0.26679729,-283.8178,-91.773148)" />
    <polygon
       id="polygon3954"
       style="fill:#90fcc3;fill-opacity:1"
       points="64.84,96.12 64.14,89.33 323.53,89.33 324.23,96.12 "
       transform="matrix(0.26458333,0,0,0.26679729,-283.8178,-91.773148)" />
    <polygon
       id="polygon3956"
       style="fill:#90fcc3;fill-opacity:1"
       points="64.84,102.08 64.14,95.29 323.53,95.29 324.23,102.08 "
       transform="matrix(0.26458333,0,0,0.26679729,-283.8178,-91.773148)" />
    <polygon
       id="polygon3958"
       style="fill:#90fcc3;fill-opacity:1"
       points="64.84,108.71 64.14,101.92 323.53,101.92 324.23,108.71 "
       transform="matrix(0.26458333,0,0,0.26679729,-283.8178,-91.773148)" />
    <polygon
       id="polygon3960"
       style="fill:#90fcc3;fill-opacity:1"
       points="64.84,116.65 64.14,109.87 323.53,109.87 324.23,116.65 "
       transform="matrix(0.26458333,0,0,0.26679729,-283.8178,-91.773148)" />
    <polygon
       id="polygon3962"
       style="fill:#90fcc3;fill-opacity:1"
       points="64.84,125.59 64.14,118.81 323.53,118.81 324.23,125.59 "
       transform="matrix(0.26458333,0,0,0.26679729,-283.8178,-91.773148)" />
    <rect
       id="rect3964"
       style="fill:#90fcc3;stroke-width:0.265688;fill-opacity:1"
       height="22.965912"
       width="17.327562"
       y="-69.786385"
       x="-188.12065" />
    <rect
       id="rect3966"
       style="fill:#b4fdd6;stroke-width:0.265688;fill-opacity:1"
       height="22.965912"
       width="17.896416"
       y="-69.786385"
       x="-187.50946" />
    <rect
       id="rect3968"
       style="fill:#f2fef7;stroke-width:0.265688;fill-opacity:1"
       transform="rotate(90)"
       height="14.898687"
       width="19.943098"
       y="171.1106"
       x="-68.273643" />
    <path
       id="path3970"
       style="fill:#90fcc3;stroke-width:0.265688;fill-opacity:1"
       d="m -174.93382,-54.498899 h -3.86821 a 3.5321875,3.5617438 0 0 1 -3.5269,-3.559075 v -3.900577 a 0.142875,0.14407054 0 0 1 0.14288,-0.14407 h 3.86821 a 3.5321875,3.5617438 0 0 1 3.52689,3.556407 v 3.900577 a 0.14552083,0.14673851 0 0 1 -0.14287,0.146738 z m -7.10671,-7.312913 v 3.753838 a 3.2437916,3.2709348 0 0 0 3.2385,3.268266 h 3.72798 v -3.756506 a 3.2437916,3.2709348 0 0 0 -3.24115,-3.265598 z"
       inkscape:connector-curvature="0" />
    <path
       id="path3972"
       style="fill:#b4fdd6;stroke-width:0.265688;fill-opacity:1"
       d="m -218.81497,-25.874217 c 0,0.800392 0.55827,1.371338 -0.24341,1.371338 -0.80169,0 -2.64584,-0.562943 -2.64584,-1.371338 a 1.45521,1.4673868 0 0 1 2.91042,0 z"
       inkscape:connector-curvature="0" />
    <path
       id="path3974"
       style="fill:#b4fdd6;stroke-width:0.265688;fill-opacity:1"
       d="m -216.33318,-25.17254 c 0,0.800391 0.55827,1.36867 -0.24341,1.36867 -0.80169,0 -2.64584,-0.562943 -2.64584,-1.36867 a 1.45521,1.4673868 0 1 1 2.91042,0 z"
       inkscape:connector-curvature="0" />
    <path
       id="path3976"
       style="fill:#b4fdd6;stroke-width:0.265688;fill-opacity:1"
       d="m -213.95457,-25.60742 c 0,0.800392 0.55827,1.36867 -0.24342,1.36867 -0.80169,0 -2.64583,-0.562942 -2.64583,-1.36867 a 1.4552083,1.4673851 0 0 1 2.91041,0 z"
       inkscape:connector-curvature="0" />
    <path
       id="path3978"
       style="fill:#b4fdd6;stroke-width:0.265688;fill-opacity:1"
       d="m -222.6038,-25.412658 c 0,0 0.11906,2.852063 4.6646,2.852063 4.54554,0 4.66461,-2.852063 4.66461,-2.852063 z"
       inkscape:connector-curvature="0" />
    <polygon
       id="polygon3980"
       style="fill:#e6e6e6"
       points="367.63,184.13 373.46,244.72 273.08,244.72 267.25,184.13 "
       transform="matrix(0.26458333,0,0,0.26679729,-283.8178,-91.773148)" />
    <polygon
       id="polygon3982"
       style="fill:#e6e6e6"
       points="333.14,197.18 326.2,257.77 310.65,257.77 317.59,197.18 "
       transform="matrix(0.26458333,0,0,0.26679729,-283.8178,-91.773148)" />
    <polygon
       id="polygon3984"
       style="fill:#b4fdd6;fill-opacity:1"
       points="311.61,257.77 312.72,248.08 318.55,197.18 334.1,197.18 328.27,248.08 327.16,257.77 "
       transform="matrix(0.26458333,0,0,0.26679729,-283.8178,-91.773148)" />
    <polygon
       id="polygon3986"
       style="fill:#90fcc3;fill-opacity:1"
       points="328.27,248.08 312.72,248.08 318.55,197.18 334.1,197.18 "
       transform="matrix(0.26458333,0,0,0.26679729,-283.8178,-91.773148)" />
    <polygon
       id="polygon3988"
       style="fill:#b4fdd6;fill-opacity:1"
       points="370.79,184.13 376.62,244.72 274.01,244.72 268.18,184.13 "
       transform="matrix(0.26458333,0,0,0.26679729,-283.8178,-91.773148)" />
    <polygon
       id="polygon3990"
       style="fill:#e4fef0;fill-opacity:1"
       points="271.29,186.9 368.2,186.9 373.51,241.96 276.6,241.96 "
       transform="matrix(0.26458333,0,0,0.26679729,-283.8178,-91.773148)" />
    <rect
       id="rect3992"
       style="fill:#e6e6e6;stroke-width:0.265688"
       height="0.44288349"
       width="3.6380208"
       y="-23.000814"
       x="-203.64905" />
    <rect
       id="rect3994"
       style="fill:#b4fdd6;stroke-width:0.265688;fill-opacity:1"
       transform="scale(-1)"
       height="0.44288349"
       width="6.06425"
       y="22.557924"
       x="193.94678" />
    <rect
       id="rect3996"
       style="fill:#90fcc3;stroke-width:0.265688;fill-opacity:1"
       height="32.808064"
       width="2.0611041"
       y="-22.557928"
       x="-172.64253" />
    <rect
       id="rect3998"
       style="fill:#b4fdd6;stroke-width:0.265688;fill-opacity:1"
       height="32.808064"
       width="1.4313958"
       y="-22.557928"
       x="-171.36195" />
    <rect
       id="rect4000"
       style="fill:#b4fdd6;stroke-width:0.265688;fill-opacity:1"
       transform="scale(-1)"
       height="2.5532501"
       width="82.809296"
       y="20.004675"
       x="169.48869" />
    <rect
       id="rect4002"
       style="fill:#90fcc3;stroke-width:0.265688;fill-opacity:1"
       height="30.254812"
       width="2.0611041"
       y="-20.004677"
       x="-255.27985" />
    <rect
       id="rect4004"
       style="fill:#b4fdd6;stroke-width:0.265688;fill-opacity:1"
       height="30.254812"
       width="1.4313958"
       y="-20.004677"
       x="-254.00191" />
    <rect
       id="rect4006"
       style="fill:#90fcc3;stroke-width:0.265688;fill-opacity:1"
       height="30.254812"
       width="2.0611041"
       y="-20.004677"
       x="-268.32645" />
    <rect
       id="rect4008"
       style="fill:#b4fdd6;stroke-width:0.265688;fill-opacity:1"
       height="30.254812"
       width="1.4313958"
       y="-20.004677"
       x="-267.04587" />
    <rect
       id="rect4010"
       style="fill:#90fcc3;stroke-width:0.265688;fill-opacity:1"
       height="30.254812"
       width="2.0611041"
       y="-20.004677"
       x="-185.68648" />
    <rect
       id="rect4012"
       style="fill:#b4fdd6;stroke-width:0.265688;fill-opacity:1"
       height="30.254812"
       width="1.4313958"
       y="-20.004677"
       x="-184.4059" />
    <rect
       id="rect4014"
       style="fill:#90fcc3;stroke-width:0.265688;fill-opacity:1"
       height="2.5532501"
       width="16.02846"
       y="-22.557928"
       x="-268.32645" />
    <polygon
       id="polygon4016"
       style="fill:#90fcc3;fill-opacity:1"
       points="183.12,218.91 192.55,257.3 127.53,257.3 118.11,218.91 "
       transform="matrix(0.26458333,0,0,0.26679729,-283.8178,-91.773148)" />
    <polygon
       id="polygon4018"
       style="fill:#90fcc3;fill-opacity:1"
       points="127.79,259.43 192.81,259.43 192.55,257.3 127.53,257.3 "
       transform="matrix(0.26458333,0,0,0.26679729,-283.8178,-91.773148)" />
    <polygon
       id="polygon4020"
       style="fill:#b4fdd6;fill-opacity:1"
       points="185.13,218.91 194.55,257.3 129.53,257.3 120.11,218.91 "
       transform="matrix(0.26458333,0,0,0.26679729,-283.8178,-91.773148)" />
    <polygon
       id="polygon4022"
       style="fill:#e4fef0;fill-opacity:1"
       points="122.34,220.66 183.75,220.66 192.31,255.55 130.91,255.55 "
       transform="matrix(0.26458333,0,0,0.26679729,-283.8178,-91.773148)" />
    <polygon
       id="polygon4024"
       style="fill:#fafafa"
       points="146.73,259.43 218.33,259.43 218.07,257.3 146.47,257.3 "
       transform="matrix(0.26458333,0,0,0.26679729,-283.8178,-91.773148)" />
    <path
       id="path4026"
       style="fill:#b4fdd6;stroke-width:0.265688;fill-opacity:1"
       d="m -231.16572,10.250136 h -0.57414 l -1.63513,-8.1319817 -0.28575,-1.42469753 -1.78594,-8.86033797 h -6.84741 l -3.70417,18.4090132 h -0.57414 l 3.76502,-18.7478458 a 0.28310416,0.2854731 0 0 1 0.26458,-0.2267777 h 7.3025 a 0.26458333,0.26679729 0 0 1 0.26458,0.2267777 l 1.56634,7.78247696 0.28839,1.42202955 z"
       inkscape:connector-curvature="0" />
    <path
       id="path4028"
       style="fill:#f0f0f0;stroke-width:0.265688"
       d="m -220.18286,10.250136 h -0.5715 l -3.70417,-18.4090133 h -6.84742 l -1.78593,8.86567393 -0.28575,1.41936157 -1.63777,8.1319818 h -0.5715 l 1.92352,-9.55667931 0.2831,-1.41669361 1.56898,-7.78247698 a 0.28045833,0.28280513 0 0 1 0.26458,-0.2267777 h 7.29986 a 0.2778125,0.28013715 0 0 1 0.26458,0.2267777 z"
       inkscape:connector-curvature="0" />
    <path
       id="path4030"
       style="fill:#b4fdd6;stroke-width:0.265688;fill-opacity:1"
       d="m -237.05005,-8.4496864 h 12.573 a 4.4106041,4.4475108 0 0 0 4.42383,-4.3514636 l 0.46832,-19.270768 a 3.2120416,3.2389191 0 0 0 -3.21205,-3.302951 h -7.89516 a 3.2120416,3.2389191 0 0 0 -3.19088,2.870739 z"
       inkscape:connector-curvature="0" />
    <path
       id="path4032"
       style="fill:#b4fdd6;stroke-width:0.265688;fill-opacity:1"
       d="m -230.19205,-8.4496863 h -13.3985 a 0.62706249,0.63230958 0 0 1 -0.62706,-0.6323096 v -0.058695 a 1.7224375,1.7368504 0 0 1 1.72243,-1.7368511 h 12.30313 z"
       inkscape:connector-curvature="0" />
    <path
       id="path4034"
       style="fill:#b4fdd6;stroke-width:0.265688;fill-opacity:1"
       d="m -187.50947,10.250136 h -0.57414 l -1.63513,-8.1319817 -0.28839,-1.42469753 -1.7833,-8.86033797 h -6.83154 l -3.70416,18.4090132 h -0.57415 l 3.77825,-18.7558497 a 0.28310416,0.2854731 0 0 1 0.26458,-0.2267777 h 7.3025 a 0.26458333,0.26679729 0 0 1 0.26459,0.2267777 l 1.56633,7.78247694 0.2884,1.42202956 z"
       inkscape:connector-curvature="0" />
    <path
       id="path4036"
       style="fill:#b4fdd6;stroke-width:0.265688;fill-opacity:1"
       d="m -176.52132,10.250136 h -0.5715 l -3.70417,-18.4090133 h -6.84742 l -1.78593,8.86567393 -0.28575,1.41936157 -1.63777,8.1319818 h -0.5715 l 1.92087,-9.55667931 0.28575,-1.41669361 1.56898,-7.78247698 a 0.28045833,0.28280513 0 0 1 0.26458,-0.2267777 h 7.29986 a 0.2778125,0.28013715 0 0 1 0.26458,0.2267777 z"
       inkscape:connector-curvature="0" />
    <path
       id="path4038"
       style="fill:#b4fdd6;stroke-width:0.265688;fill-opacity:1"
       d="m -193.38851,-8.4496864 h 12.573 a 4.4106041,4.4475108 0 0 0 4.41854,-4.3514636 l 0.46831,-19.270768 a 3.2120416,3.2389191 0 0 0 -3.21204,-3.302951 h -7.88987 a 3.2120416,3.2389191 0 0 0 -3.19088,2.870739 z"
       inkscape:connector-curvature="0" />
    <path
       id="path4040"
       style="fill:#b4fdd6;stroke-width:0.265688;fill-opacity:1"
       d="m -186.53051,-8.4496863 h -13.3985 a 0.62706249,0.63230958 0 0 1 -0.62706,-0.6323096 v -0.058695 a 1.7224375,1.7368504 0 0 1 1.72243,-1.7368511 h 12.30313 z"
       inkscape:connector-curvature="0" />
    <path
       id="path4042"
       style="fill:#90fcc3;stroke-width:0.265688;fill-opacity:1"
       d="m -257.38857,-26.733305 a 1.4075833,1.4193616 0 0 0 -0.14817,0.01601 v -0.336164 a 0.41804166,0.42153972 0 0 0 -0.41804,-0.42154 h -3.26231 a 0.42068749,0.42420769 0 0 0 -0.42069,0.42154 v 4.492866 h 4.10104 v -0.755036 a 1.3996458,1.4113577 0 0 0 0.14817,0.01334 1.2356042,1.2459433 0 0 0 1.2356,-1.243276 v -0.941794 a 1.23825,1.2486113 0 0 0 -1.2356,-1.245944 z m 0.70644,2.187738 a 0.70643749,0.71234876 0 0 1 -0.70644,0.709681 0.68791666,0.69367295 0 0 1 -0.14817,-0.01601 v -2.331808 a 0.90752082,0.9151147 0 0 1 0.14817,-0.01601 0.70908332,0.71501674 0 0 1 0.70644,0.712349 z"
       inkscape:connector-curvature="0" />
    <g
       id="freepik--character-2--inject-4"
       transform="matrix(0.26458333,0,0,0.26679729,-283.8178,-91.773148)">
      <polygon
         points="146.32,183.11 138.8,182.7 139.36,191.56 144.88,191.75 "
         style="fill:#e4897b"
         id="polygon4045" />
      <path
         inkscape:connector-curvature="0"
         d="m 190,166.43 c -1.52,4.74 -3.19,9.3 -5.05,13.89 a 131.92,131.92 0 0 1 -6.4,13.65 l -1,1.72 -1.12,1.75 c -0.11,0.16 -0.15,0.25 -0.31,0.47 -0.16,0.22 -0.29,0.41 -0.45,0.61 a 14.21,14.21 0 0 1 -1,1.17 10.86,10.86 0 0 1 -2.68,2 11.75,11.75 0 0 1 -6.13,1.25 15.94,15.94 0 0 1 -4.9,-1.18 22.25,22.25 0 0 1 -3.86,-2 31.14,31.14 0 0 1 -3.3,-2.37 38.55,38.55 0 0 1 -2.91,-2.63 37.54,37.54 0 0 1 -2.68,-2.9 l 4,-4.32 c 0.9,0.53 1.93,1.17 2.9,1.72 0.97,0.55 2,1.06 3,1.56 a 26,26 0 0 0 5.73,2.11 6.53,6.53 0 0 0 2.16,0.07 c 0.55,-0.08 0.76,-0.26 0.83,-0.39 l 0.15,-0.25 0.11,-0.22 0.07,-0.14 0.15,-0.3 0.72,-1.36 0.71,-1.48 c 1.85,-4.05 3.55,-8.46 5.17,-12.88 1.62,-4.42 3.25,-8.93 4.82,-13.33 z"
         style="fill:#e4897b"
         id="path4047" />
      <path
         inkscape:connector-curvature="0"
         d="m 152.39,187.67 -6.06,-4.56 -1.45,8.64 c 0,0 5,3.82 8.58,0.49 z"
         style="fill:#e4897b"
         id="path4049" />
      <path
         inkscape:connector-curvature="0"
         d="m 195.27,158.42 c 2.54,6.72 -10.91,30.66 -10.91,30.66 l -16.89,-5.75 c 0,0 6,-16.42 11.16,-24.14 5.37,-7.93 13.86,-8.19 16.64,-0.77 z"
         style="fill:#407bff"
         id="path4051" />
      <path
         inkscape:connector-curvature="0"
         d="m 195.27,158.42 c 2.54,6.72 -10.91,30.66 -10.91,30.66 l -16.89,-5.75 c 0,0 6,-16.42 11.16,-24.14 5.37,-7.93 13.86,-8.19 16.64,-0.77 z"
         style="opacity:0.3"
         id="path4053" />
      <path
         inkscape:connector-curvature="0"
         d="m 186.35,153.27 c 0,0 -8.88,16.79 -0.45,59.06 h 40.21 c 0.28,-6.17 -3.6,-30.36 2.35,-59.44 a 103.47,103.47 0 0 0 -13.46,-1.7 147.52,147.52 0 0 0 -17.09,0 75.48,75.48 0 0 0 -11.56,2.08 z"
         style="fill:#407bff"
         id="path4055" />
      <path
         inkscape:connector-curvature="0"
         d="m 186.35,153.27 c 0,0 -8.88,16.79 -0.45,59.06 h 40.21 c 0.28,-6.17 -3.6,-30.36 2.35,-59.44 a 103.47,103.47 0 0 0 -13.46,-1.7 147.52,147.52 0 0 0 -17.09,0 75.48,75.48 0 0 0 -11.56,2.08 z"
         style="opacity:0.3"
         id="path4057" />
      <polygon
         points="235.08,392.63 236.48,409.64 229.13,409.64 227.74,392.63 "
         style="fill:#e4897b"
         id="polygon4059" />
      <polygon
         points="235.09,392.64 227.74,392.64 228.46,401.4 235.81,401.4 "
         style="fill:#ce6f64"
         id="polygon4061" />
      <polygon
         points="193.04,392.63 193.28,409.64 185.94,409.64 185.69,392.63 "
         style="fill:#e4897b"
         id="polygon4063" />
      <polygon
         points="193.04,392.64 185.69,392.64 185.82,401.4 193.17,401.4 "
         style="fill:#ce6f64"
         id="polygon4065" />
      <path
         inkscape:connector-curvature="0"
         d="m 185.9,212.33 c 0,0 -5.4,68.92 -6.41,91.84 -1.05,23.83 3.95,95.13 3.95,95.13 h 11.95 c 0,0 4.36,-66.13 6.41,-89.47 2.24,-25.44 10.53,-97.5 10.53,-97.5 z"
         style="fill:#407bff"
         id="path4067" />
      <path
         inkscape:connector-curvature="0"
         d="m 185.9,212.33 c 0,0 -5.4,68.92 -6.41,91.84 -1.05,23.83 3.95,95.13 3.95,95.13 h 11.95 c 0,0 4.36,-66.13 6.41,-89.47 2.24,-25.44 10.53,-97.5 10.53,-97.5 z"
         style="opacity:0.7"
         id="path4069" />
      <path
         inkscape:connector-curvature="0"
         d="m 228.85,408.79 h 8 a 0.65,0.65 0 0 1 0.63,0.51 l 1.45,6.53 a 1.07,1.07 0 0 1 -1.06,1.3 c -2.89,-0.05 -7.07,-0.22 -10.71,-0.22 -4.25,0 -4.84,0.24 -9.83,0.24 -3,0 -3.86,-3 -2.59,-3.33 5.74,-1.26 7.35,-1.39 12.32,-4.45 a 3.36,3.36 0 0 1 1.79,-0.58 z"
         style="fill:#263238"
         id="path4071" />
      <path
         inkscape:connector-curvature="0"
         d="m 185.65,408.79 h 8 a 0.63,0.63 0 0 1 0.62,0.51 l 1.46,6.53 a 1.07,1.07 0 0 1 -1.06,1.3 c -2.9,-0.05 -7.08,-0.22 -10.71,-0.22 -4.26,0 -7.93,0.24 -12.92,0.24 -3,0 -3.85,-3 -2.59,-3.33 5.75,-1.26 10.44,-1.39 15.41,-4.45 a 3.33,3.33 0 0 1 1.79,-0.58 z"
         style="fill:#263238"
         id="path4073" />
      <path
         inkscape:connector-curvature="0"
         d="m 182.62,409.92 a 2.27,2.27 0 0 1 -1.49,-0.15 1,1 0 0 1 -0.51,-0.88 0.56,0.56 0 0 1 0.22,-0.54 c 0.74,-0.55 3.38,0.54 3.68,0.67 a 0.19,0.19 0 0 1 0.11,0.16 0.2,0.2 0 0 1 -0.11,0.17 9.51,9.51 0 0 1 -1.9,0.57 z m -1.35,-1.36 a 0.44,0.44 0 0 0 -0.22,0.08 c -0.05,0 -0.09,0.08 -0.08,0.22 a 0.74,0.74 0 0 0 0.34,0.6 3.62,3.62 0 0 0 2.66,-0.28 7.26,7.26 0 0 0 -2.7,-0.62 z"
         style="fill:#407bff"
         id="path4075" />
      <path
         inkscape:connector-curvature="0"
         d="m 184.48,409.36 h -0.09 c -0.84,-0.3 -2.58,-1.69 -2.55,-2.54 a 0.57,0.57 0 0 1 0.48,-0.55 1,1 0 0 1 0.79,0.11 c 1,0.57 1.49,2.68 1.51,2.77 a 0.16,0.16 0 0 1 -0.05,0.17 0.2,0.2 0 0 1 -0.09,0.04 z m -2,-2.78 h -0.08 c -0.22,0.07 -0.22,0.17 -0.23,0.22 0,0.5 1.13,1.58 2,2 a 4.31,4.31 0 0 0 -1.24,-2.19 0.66,0.66 0 0 0 -0.43,-0.03 z"
         style="fill:#407bff"
         id="path4077" />
      <polygon
         points="197.95,394.29 197.69,399.6 182.86,399.6 181.57,394 "
         style="fill:#407bff"
         id="polygon4079" />
      <path
         inkscape:connector-curvature="0"
         d="m 225.82,409.92 a 2.27,2.27 0 0 1 -1.49,-0.15 1.09,1.09 0 0 1 -0.51,-0.88 0.56,0.56 0 0 1 0.22,-0.54 c 0.75,-0.55 3.38,0.54 3.68,0.67 a 0.17,0.17 0 0 1 0.11,0.16 0.18,0.18 0 0 1 -0.11,0.17 9.51,9.51 0 0 1 -1.9,0.57 z m -1.35,-1.36 a 0.48,0.48 0 0 0 -0.22,0.08 0.22,0.22 0 0 0 -0.08,0.22 0.74,0.74 0 0 0 0.34,0.6 3.62,3.62 0 0 0 2.66,-0.28 7.26,7.26 0 0 0 -2.7,-0.62 z"
         style="fill:#407bff"
         id="path4081" />
      <path
         inkscape:connector-curvature="0"
         d="m 227.68,409.36 h -0.09 c -0.83,-0.3 -2.58,-1.69 -2.55,-2.54 a 0.58,0.58 0 0 1 0.49,-0.55 0.94,0.94 0 0 1 0.78,0.11 c 1,0.57 1.49,2.68 1.51,2.77 a 0.16,0.16 0 0 1 0,0.17 0.2,0.2 0 0 1 -0.14,0.04 z m -2,-2.78 h -0.07 c -0.23,0.07 -0.23,0.17 -0.23,0.22 0,0.5 1.12,1.58 2,2 a 4.32,4.32 0 0 0 -1.25,-2.19 0.66,0.66 0 0 0 -0.43,-0.03 z"
         style="fill:#407bff"
         id="path4083" />
      <path
         inkscape:connector-curvature="0"
         d="m 200.17,212.33 c 0,0 3.41,67.37 8.09,88.89 5.13,23.57 16.33,98.08 16.33,98.08 h 13.76 c 0,0 -4.61,-72.61 -7.54,-95.94 -3.17,-25.33 -4.7,-91 -4.7,-91 z"
         style="fill:#407bff"
         id="path4085" />
      <path
         inkscape:connector-curvature="0"
         d="m 200.17,212.33 c 0,0 3.41,67.37 8.09,88.89 5.13,23.57 16.33,98.08 16.33,98.08 h 13.76 c 0,0 -4.61,-72.61 -7.54,-95.94 -3.17,-25.33 -4.7,-91 -4.7,-91 z"
         style="opacity:0.7"
         id="path4087" />
      <path
         inkscape:connector-curvature="0"
         d="m 232.8,391.17 v 0 a 0.12,0.12 0 0 0 0.1,-0.14 c -0.11,-0.7 -3.48,-65.86 -6.11,-86.82 -2.85,-22.75 -3.74,-83.11 -3.8,-83.62 a 0.14,0.14 0 0 0 -0.15,-0.11 0.12,0.12 0 0 0 -0.11,0.14 c 0.06,0.51 1,60.87 3.81,83.62 2.63,21 6,86.13 6.11,86.83 a 0.13,0.13 0 0 0 0.15,0.1 z"
         style="fill:#407bff"
         id="path4089" />
      <path
         inkscape:connector-curvature="0"
         d="m 232.8,391.17 v 0 a 0.12,0.12 0 0 0 0.1,-0.14 c -0.11,-0.7 -3.48,-65.86 -6.11,-86.82 -2.85,-22.75 -3.74,-83.11 -3.8,-83.62 a 0.14,0.14 0 0 0 -0.15,-0.11 0.12,0.12 0 0 0 -0.11,0.14 c 0.06,0.51 1,60.87 3.81,83.62 2.63,21 6,86.13 6.11,86.83 a 0.13,0.13 0 0 0 0.15,0.1 z"
         style="opacity:0.4"
         id="path4091" />
      <polygon
         points="239.18,393.54 238.89,399.6 224.05,399.6 222.76,394 "
         style="fill:#407bff"
         id="polygon4093" />
      <path
         inkscape:connector-curvature="0"
         d="m 213.31,131.94 c -1.08,5.5 -2.16,15.58 1.69,19.25 0,0 -1.73,3.69 -11.95,3.69 -9.34,0 -5.14,-3.69 -5.14,-3.69 6.13,-1.47 6,-6 4.91,-10.29 z"
         style="fill:#e4897b"
         id="path4095" />
      <path
         inkscape:connector-curvature="0"
         d="m 209,135.6 -6.21,5.3 a 17,17 0 0 1 0.53,3 c 2,1.9 5.56,-2.91 5.81,-5.36 A 8.3,8.3 0 0 0 209,135.6 Z"
         style="fill:#ce6f64"
         id="path4097" />
      <path
         inkscape:connector-curvature="0"
         d="m 194.51,115.18 c -3.34,2.23 -3.39,12.79 1.71,14.25 5.1,1.46 4.62,-18.43 -1.71,-14.25 z"
         style="fill:#263238"
         id="path4099" />
      <path
         inkscape:connector-curvature="0"
         d="m 214,123.67 c -0.45,7.44 -0.34,11.82 -4.1,15.65 -5.66,5.75 -14.85,2.33 -16.63,-5.1 -1.6,-6.69 -0.58,-17.74 6.71,-20.71 A 10.17,10.17 0 0 1 214,123.67 Z"
         style="fill:#e4897b"
         id="path4101" />
      <path
         inkscape:connector-curvature="0"
         d="m 216.58,114.28 -7.19,3.22 c 2.82,5.26 -3.52,14.14 2.87,13.17 2.93,-0.45 12.17,-9.59 4.32,-16.39 z"
         style="fill:#263238"
         id="path4103" />
      <path
         inkscape:connector-curvature="0"
         d="m 214.72,127.77 v 0 c -1.78,-0.41 -7.32,-1.55 -7.38,-1.56 a 0.17,0.17 0 0 1 -0.13,-0.19 0.16,0.16 0 0 1 0.19,-0.13 c 0.06,0 5.61,1.15 7.4,1.56 a 0.16,0.16 0 0 1 0,0.32 z"
         style="fill:#263238"
         id="path4105" />
      <path
         inkscape:connector-curvature="0"
         d="m 217.33,131.87 a 7.06,7.06 0 0 1 -4.42,3.13 c -2.43,0.54 -3.51,-1.67 -2.72,-3.89 0.72,-2 2.84,-4.68 5.22,-4.22 a 3.19,3.19 0 0 1 1.92,4.98 z"
         style="fill:#e4897b"
         id="path4107" />
      <path
         inkscape:connector-curvature="0"
         d="m 203.13,125.75 c 0,0.6 -0.33,1.09 -0.72,1.09 -0.39,0 -0.72,-0.49 -0.72,-1.09 0,-0.6 0.32,-1.1 0.72,-1.1 0.4,0 0.72,0.49 0.72,1.1 z"
         style="fill:#263238"
         id="path4109" />
      <path
         inkscape:connector-curvature="0"
         d="m 196.27,125.75 c 0,0.6 -0.32,1.09 -0.72,1.09 -0.4,0 -0.71,-0.49 -0.71,-1.09 0,-0.6 0.32,-1.1 0.71,-1.1 0.39,0 0.72,0.49 0.72,1.1 z"
         style="fill:#263238"
         id="path4111" />
      <path
         inkscape:connector-curvature="0"
         d="m 198,126.05 a 21.74,21.74 0 0 1 -2.89,5.18 3.46,3.46 0 0 0 2.89,0.55 z"
         style="fill:#de5753"
         id="path4113" />
      <path
         inkscape:connector-curvature="0"
         d="m 198.9,134.37 a 0.18,0.18 0 0 1 -0.17,-0.19 0.17,0.17 0 0 1 0.18,-0.17 4.82,4.82 0 0 0 4,-1.71 0.19,0.19 0 0 1 0.25,-0.05 0.18,0.18 0 0 1 0,0.25 5.1,5.1 0 0 1 -4.26,1.87 z"
         style="fill:#263238"
         id="path4115" />
      <path
         inkscape:connector-curvature="0"
         d="m 206.22,120.64 a 0.34,0.34 0 0 1 -0.29,-0.11 2.8,2.8 0 0 0 -2.38,-1 0.37,0.37 0 0 1 -0.41,-0.3 0.36,0.36 0 0 1 0.29,-0.41 3.54,3.54 0 0 1 3,1.21 0.36,0.36 0 0 1 0,0.5 0.4,0.4 0 0 1 -0.21,0.11 z"
         style="fill:#263238"
         id="path4117" />
      <rect
         x="207.77"
         y="170.99001"
         width="11.75"
         height="0.95999998"
         transform="rotate(1.92,213.89503,171.61852)"
         style="fill:#e0e0e0"
         id="rect4119" />
      <path
         inkscape:connector-curvature="0"
         d="m 193.22,120.57 a 0.39,0.39 0 0 1 -0.14,-0.08 0.37,0.37 0 0 1 0,-0.51 3.54,3.54 0 0 1 3.07,-1.07 0.36,0.36 0 1 1 -0.14,0.7 v 0 a 2.84,2.84 0 0 0 -2.42,0.87 0.37,0.37 0 0 1 -0.37,0.09 z"
         style="fill:#263238"
         id="path4121" />
      <path
         inkscape:connector-curvature="0"
         d="m 200.69,114.28 c 0,0 -0.22,-5.8 5.64,-5.5 4.55,0.23 13.08,6.83 15.75,5.5 0,0 -5,5.9 -11.58,4 a 40,40 0 0 1 -9.81,-4 z"
         style="fill:#263238"
         id="path4123" />
      <path
         inkscape:connector-curvature="0"
         d="m 200.69,114.28 c 0,0 4.92,-3 1.66,-4.71 -4.74,-2.46 -10.44,6.48 -13.1,5.15 0,0 0.58,4.25 6.93,1.76 a 32.81,32.81 0 0 0 4.51,-2.2 z"
         style="fill:#263238"
         id="path4125" />
      <path
         inkscape:connector-curvature="0"
         d="m 203.13,130.87 c -2.42,0 -4.39,-2.46 -4.39,-5.48 0,-2.68 1.56,-4.16 4.39,-4.16 2.83,0 4.4,1.48 4.4,4.16 0,3.02 -1.97,5.48 -4.4,5.48 z m 0,-9.32 c -1.85,0 -4.07,0.67 -4.07,3.84 0,2.84 1.83,5.15 4.07,5.15 2.24,0 4.07,-2.31 4.07,-5.15 0,-3.17 -2.2,-3.84 -4.07,-3.84 z"
         style="fill:#263238"
         id="path4127" />
      <path
         inkscape:connector-curvature="0"
         d="m 193.21,130.87 c -2,0 -3.69,-2.46 -3.69,-5.48 0,-3.62 2.31,-4.16 3.69,-4.16 1.38,0 3.69,0.54 3.69,4.16 0,3.02 -1.65,5.48 -3.69,5.48 z m 0,-9.32 c -1.54,0 -3.37,0.67 -3.37,3.84 0,2.84 1.51,5.15 3.37,5.15 1.86,0 3.37,-2.31 3.37,-5.15 0,-3.17 -1.83,-3.84 -3.37,-3.84 z"
         style="fill:#263238"
         id="path4129" />
      <path
         inkscape:connector-curvature="0"
         d="m 196.44,123.62 a 0.16,0.16 0 0 1 -0.14,-0.08 0.15,0.15 0 0 1 0.06,-0.22 2.92,2.92 0 0 1 3,0 0.17,0.17 0 0 1 0.07,0.22 0.16,0.16 0 0 1 -0.22,0.07 2.56,2.56 0 0 0 -2.67,0 z"
         style="fill:#263238"
         id="path4131" />
      <path
         inkscape:connector-curvature="0"
         d="m 205.14,153.81 c 0,0 2.58,3.61 3.08,6.22 3.08,-1.28 8.91,-4.48 9.69,-9 a 13.28,13.28 0 0 1 -3.19,-1.5 c 0,0 -3.11,2.64 -9.58,4.28 z"
         style="fill:#f0f0f0"
         id="path4133" />
      <path
         inkscape:connector-curvature="0"
         d="m 203.06,153.64 a 10.09,10.09 0 0 0 -3,5.76 c -3.08,-1.28 -4.29,-5.46 -3.48,-8.23 a 17.54,17.54 0 0 1 3.65,-1.2 3.55,3.55 0 0 0 2.83,3.67 z"
         style="fill:#f0f0f0"
         id="path4135" />
      <path
         inkscape:connector-curvature="0"
         d="m 222.5,151.53 -1.9,-0.17 a 0.37,0.37 0 0 0 -0.39,0.3 c -5.29,28.37 -2.32,58.49 -2.32,58.49 H 220 a 269.73,269.73 0 0 1 2.86,-58.2 0.37,0.37 0 0 0 -0.36,-0.42 z"
         style="fill:#407bff"
         id="path4137" />
      <path
         inkscape:connector-curvature="0"
         d="m 222.5,151.53 -1.9,-0.17 a 0.37,0.37 0 0 0 -0.39,0.3 c -5.29,28.37 -2.32,58.49 -2.32,58.49 H 220 a 269.73,269.73 0 0 1 2.86,-58.2 0.37,0.37 0 0 0 -0.36,-0.42 z"
         style="opacity:0.7"
         id="path4139" />
      <path
         inkscape:connector-curvature="0"
         d="m 219.61,210.82 h -1.45 a 0.67,0.67 0 0 1 -0.67,-0.67 v 0 a 0.68,0.68 0 0 1 0.67,-0.68 h 1.45 a 0.69,0.69 0 0 1 0.68,0.68 v 0 a 0.68,0.68 0 0 1 -0.68,0.67 z"
         style="fill:#e0e0e0"
         id="path4141" />
      <path
         inkscape:connector-curvature="0"
         d="m 218,212.59 v -1.9 a 0.88,0.88 0 0 1 0.89,-0.88 v 0 a 0.88,0.88 0 0 1 0.88,0.88 v 1.9 a 0.89,0.89 0 0 1 -0.88,0.88 v 0 A 0.89,0.89 0 0 1 218,212.59 Z"
         style="fill:#e0e0e0"
         id="path4143" />
      <path
         inkscape:connector-curvature="0"
         d="m 190.67,151.91 -1.88,0.35 a 0.37,0.37 0 0 0 -0.3,0.32 c -4,28.38 0.39,57.57 0.39,57.57 H 191 c -3.13,-30.89 -0.35,-54.17 0.13,-57.83 a 0.36,0.36 0 0 0 -0.46,-0.41 z"
         style="fill:#407bff"
         id="path4145" />
      <path
         inkscape:connector-curvature="0"
         d="m 190.67,151.91 -1.88,0.35 a 0.37,0.37 0 0 0 -0.3,0.32 c -4,28.38 0.39,57.57 0.39,57.57 H 191 c -3.13,-30.89 -0.35,-54.17 0.13,-57.83 a 0.36,0.36 0 0 0 -0.46,-0.41 z"
         style="opacity:0.7"
         id="path4147" />
      <path
         inkscape:connector-curvature="0"
         d="m 190.63,210.82 h -1.45 a 0.72,0.72 0 0 1 -0.71,-0.67 v 0 a 0.66,0.66 0 0 1 0.65,-0.68 h 1.45 a 0.71,0.71 0 0 1 0.7,0.68 v 0 a 0.63,0.63 0 0 1 -0.64,0.67 z"
         style="fill:#e0e0e0"
         id="path4149" />
      <path
         inkscape:connector-curvature="0"
         d="m 189.1,212.59 -0.09,-1.9 a 0.84,0.84 0 0 1 0.85,-0.88 v 0 a 0.93,0.93 0 0 1 0.92,0.88 l 0.09,1.9 a 0.84,0.84 0 0 1 -0.84,0.88 v 0 a 0.94,0.94 0 0 1 -0.93,-0.88 z"
         style="fill:#e0e0e0"
         id="path4151" />
      <path
         inkscape:connector-curvature="0"
         d="m 210.35,175 v 0 a 0.56,0.56 0 0 1 -0.52,-0.58 l 0.28,-5 a 0.54,0.54 0 0 1 0.58,-0.52 v 0 a 0.55,0.55 0 0 1 0.52,0.58 l -0.28,5 a 0.54,0.54 0 0 1 -0.58,0.52 z"
         style="fill:#407bff"
         id="path4153" />
      <path
         inkscape:connector-curvature="0"
         d="m 212.06,176.8 v 0 a 0.32,0.32 0 0 1 -0.32,-0.35 l 0.34,-7.12 a 0.35,0.35 0 0 1 0.36,-0.33 v 0 a 0.34,0.34 0 0 1 0.32,0.36 l -0.34,7.12 a 0.34,0.34 0 0 1 -0.36,0.32 z"
         style="fill:#407bff"
         id="path4155" />
      <path
         inkscape:connector-curvature="0"
         d="m 210.35,175 v 0 a 0.56,0.56 0 0 1 -0.52,-0.58 l 0.28,-5 a 0.54,0.54 0 0 1 0.58,-0.52 v 0 a 0.55,0.55 0 0 1 0.52,0.58 l -0.28,5 a 0.54,0.54 0 0 1 -0.58,0.52 z"
         style="opacity:0.7"
         id="path4157" />
      <path
         inkscape:connector-curvature="0"
         d="m 212.06,176.8 v 0 a 0.32,0.32 0 0 1 -0.32,-0.35 l 0.34,-7.12 a 0.35,0.35 0 0 1 0.36,-0.33 v 0 a 0.34,0.34 0 0 1 0.32,0.36 l -0.34,7.12 a 0.34,0.34 0 0 1 -0.36,0.32 z"
         style="opacity:0.7"
         id="path4159" />
      <polygon
         points="205.14,153.81 208.26,156.81 203.67,154.87 "
         style="fill:#407bff"
         id="polygon4161" />
      <polygon
         points="205.14,153.81 208.26,156.81 203.67,154.87 "
         style="opacity:0.5"
         id="polygon4163" />
      <polygon
         points="203.06,153.64 199.03,156.81 203.67,154.87 "
         style="fill:#407bff"
         id="polygon4165" />
      <polygon
         points="203.06,153.64 199.03,156.81 203.67,154.87 "
         style="opacity:0.5"
         id="polygon4167" />
      <path
         inkscape:connector-curvature="0"
         d="m 205.07,156.41 c 1.74,-0.65 8.7,-6.27 10.68,-3.35 1.98,2.92 -0.69,4 0.18,6 0.87,2 2.18,5.38 -2.19,4.5 -4.88,-1 -7.08,-4.41 -8.49,-4.49 -0.08,-1.18 -0.18,-2.66 -0.18,-2.66 z"
         style="fill:#407bff"
         id="path4169" />
      <path
         inkscape:connector-curvature="0"
         d="m 205.07,156.41 c 1.74,-0.65 8.7,-6.27 10.68,-3.35 1.98,2.92 -0.69,4 0.18,6 0.87,2 2.18,5.38 -2.19,4.5 -4.88,-1 -7.08,-4.41 -8.49,-4.49 -0.08,-1.18 -0.18,-2.66 -0.18,-2.66 z"
         style="opacity:0.7"
         id="path4171" />
      <path
         inkscape:connector-curvature="0"
         d="m 202.3,156 c -1.46,-0.62 -7.48,-5.88 -8.94,-3.18 -1.46,2.7 0.79,3.69 0.18,5.53 -0.61,1.84 -1.49,5 2.05,4.2 3.94,-0.88 5.56,-4.05 6.71,-4.12 z"
         style="fill:#407bff"
         id="path4173" />
      <path
         inkscape:connector-curvature="0"
         d="m 202.3,156 c -1.46,-0.62 -7.48,-5.88 -8.94,-3.18 -1.46,2.7 0.79,3.69 0.18,5.53 -0.61,1.84 -1.49,5 2.05,4.2 3.94,-0.88 5.56,-4.05 6.71,-4.12 z"
         style="opacity:0.7"
         id="path4175" />
      <path
         inkscape:connector-curvature="0"
         d="m 205.38,159.22 c 0.72,-1.21 1.2,-4.54 -0.34,-3.95 -1.54,0.59 -1.71,0.67 -2.15,0.38 -0.44,-0.29 -1.59,-0.82 -1.79,0.4 -0.2,1.22 0.1,3.65 1.24,3.6 1.14,-0.05 2.31,0.81 3.04,-0.43 z"
         style="fill:#407bff"
         id="path4177" />
      <path
         inkscape:connector-curvature="0"
         d="m 205.38,159.22 c 0.72,-1.21 1.2,-4.54 -0.34,-3.95 -1.54,0.59 -1.71,0.67 -2.15,0.38 -0.44,-0.29 -1.59,-0.82 -1.79,0.4 -0.2,1.22 0.1,3.65 1.24,3.6 1.14,-0.05 2.31,0.81 3.04,-0.43 z"
         style="opacity:0.7"
         id="path4179" />
      <path
         inkscape:connector-curvature="0"
         d="m 151.56,180.72 -2.2,16.28 a 0.52,0.52 0 0 1 -0.54,0.44 l -7,-0.42 a 0.53,0.53 0 0 1 -0.48,-0.51 l -0.05,-3.67 -0.13,-8.56 -0.06,-4.16 z"
         style="fill:#407bff"
         id="path4181" />
      <path
         inkscape:connector-curvature="0"
         d="m 151.56,180.72 -2.2,16.28 a 0.52,0.52 0 0 1 -0.54,0.44 l -7,-0.42 a 0.53,0.53 0 0 1 -0.48,-0.51 l -0.05,-3.67 -0.13,-8.56 -0.06,-4.16 z"
         style="opacity:0.3"
         id="path4183" />
      <rect
         x="139.92999"
         y="179.59"
         width="12.79"
         height="1.65"
         transform="rotate(3.44,146.23881,180.26527)"
         style="fill:#407bff"
         id="rect4185" />
      <rect
         x="140.84"
         y="178.75999"
         width="11.07"
         height="1.65"
         transform="rotate(3.44,146.21381,179.43273)"
         style="fill:#407bff"
         id="rect4187" />
      <rect
         x="140.84"
         y="178.75999"
         width="11.07"
         height="1.65"
         transform="rotate(3.44,146.21381,179.43273)"
         style="fill:#f5f5f5"
         id="rect4189" />
      <rect
         x="139.92999"
         y="179.59"
         width="12.79"
         height="1.65"
         transform="rotate(3.44,146.23881,180.26527)"
         style="fill:#ebebeb"
         id="rect4191" />
      <polygon
         points="141.09,184.25 145.28,184.5 144.77,193.02 141.22,192.81 "
         style="opacity:0.43000004;fill:#ebebeb"
         id="polygon4193" />
      <path
         inkscape:connector-curvature="0"
         d="m 242.3,235 -37.79,-0.85 a 3.54,3.54 0 0 1 -3.3,-4.05 l 3.13,-33.13 a 3.3,3.3 0 0 1 4,-3.13 l 37,8.48 c 1.26,0.29 2.16,1.92 2,3.62 l -2.4,26 c -0.18,1.68 -1.35,3.06 -2.64,3.06 z"
         style="fill:#407bff"
         id="path4195" />
      <path
         inkscape:connector-curvature="0"
         d="m 242.3,235 -37.79,-0.85 a 3.54,3.54 0 0 1 -3.3,-4.05 l 3.13,-33.13 a 3.3,3.3 0 0 1 4,-3.13 l 37,8.48 c 1.26,0.29 2.16,1.92 2,3.62 l -2.4,26 c -0.18,1.68 -1.35,3.06 -2.64,3.06 z"
         style="opacity:0.3;fill:#ffffff"
         id="path4197" />
      <path
         inkscape:connector-curvature="0"
         d="m 243,235 -37.45,-0.85 a 3.51,3.51 0 0 1 -3.26,-4 l 3.11,-33 a 3.27,3.27 0 0 1 3.9,-3.15 l 36.66,8.4 c 1.26,0.28 2.15,1.91 2,3.61 l -2.39,25.89 c -0.16,1.74 -1.33,3.1 -2.57,3.1 z"
         style="fill:#407bff"
         id="path4199" />
      <path
         inkscape:connector-curvature="0"
         d="m 243,235 -37.45,-0.85 a 3.51,3.51 0 0 1 -3.26,-4 l 3.11,-33 a 3.27,3.27 0 0 1 3.9,-3.15 l 36.66,8.4 c 1.26,0.28 2.15,1.91 2,3.61 l -2.39,25.89 c -0.16,1.74 -1.33,3.1 -2.57,3.1 z"
         style="opacity:0.7;fill:#ffffff"
         id="path4201" />
      <path
         inkscape:connector-curvature="0"
         d="m 243.14,233.46 v 0 l -37.41,-1.22 a 1.64,1.64 0 0 1 -1.2,-0.57 2,2 0 0 1 -0.46,-1.49 l 3.08,-32.65 a 1.9,1.9 0 0 1 0.72,-1.33 1.64,1.64 0 0 1 1.29,-0.27 l 36.71,8 a 1.68,1.68 0 0 1 1,1.85 l -2.4,26.09 a 1.58,1.58 0 0 1 -1.33,1.59 z m -34.37,-37.37 a 1.34,1.34 0 0 0 -0.81,0.27 1.66,1.66 0 0 0 -0.64,1.19 l -3.09,32.65 a 1.84,1.84 0 0 0 0.41,1.34 1.46,1.46 0 0 0 1.06,0.5 v 0 l 37.41,1.23 v 0 c 0.56,0 1.07,-0.62 1.14,-1.39 l 2.4,-26.09 a 1.46,1.46 0 0 0 -0.89,-1.64 l -36.7,-8 a 1.17,1.17 0 0 0 -0.29,-0.06 z"
         style="fill:#ffffff"
         id="path4203" />
      <path
         inkscape:connector-curvature="0"
         d="m 227.69,222.56 h -0.38 a 4.47,4.47 0 0 1 -3,-1.68 6.66,6.66 0 0 1 -1.39,-4.85 6.26,6.26 0 0 1 2.25,-4.4 4.26,4.26 0 0 1 3.29,-0.89 4.62,4.62 0 0 1 3.11,2.09 0.09,0.09 0 0 1 0,0.13 0.09,0.09 0 0 1 -0.13,0 4.5,4.5 0 0 0 -3,-2 4.06,4.06 0 0 0 -3.14,0.86 6.07,6.07 0 0 0 -2.18,4.25 6.5,6.5 0 0 0 1.35,4.72 4.39,4.39 0 0 0 2.91,1.61 4.18,4.18 0 0 0 3.28,-1.23 0.1,0.1 0 0 1 0.14,0 0.11,0.11 0 0 1 0,0.14 4.36,4.36 0 0 1 -3.11,1.25 z"
         style="fill:#ffffff"
         id="path4205" />
      <path
         inkscape:connector-curvature="0"
         d="m 230.67,221.29 a 0.12,0.12 0 0 1 -0.08,0 6.69,6.69 0 0 1 -1.09,-4.42 6.29,6.29 0 0 1 1.88,-4 0.10259142,0.10259142 0 0 1 0.14,0.15 6,6 0 0 0 -1.83,3.91 6.52,6.52 0 0 0 1.06,4.28 0.09,0.09 0 0 1 0,0.14 z"
         style="fill:#ffffff"
         id="path4207" />
      <path
         inkscape:connector-curvature="0"
         d="m 235.82,161.8 c 1.37,5.27 2.56,10.53 3.62,15.87 0.53,2.67 1,5.34 1.47,8.05 0.23,1.35 0.46,2.71 0.65,4.09 l 0.28,2.08 0.16,1.11 0.07,0.53 0.06,0.64 a 38.75,38.75 0 0 1 -0.46,9.22 78.44,78.44 0 0 1 -1.8,8.34 106.57,106.57 0 0 1 -5.59,15.67 l -5.6,-1.81 c 1,-5.16 1.81,-10.45 2.46,-15.59 0.32,-2.57 0.55,-5.13 0.67,-7.62 a 33,33 0 0 0 -0.29,-6.89 l -0.06,-0.36 -0.1,-0.46 -0.19,-0.94 -0.42,-1.89 -0.89,-3.84 -1.86,-7.8 c -1.26,-5.17 -2.51,-10.4 -3.68,-15.59 z"
         style="fill:#e4897b"
         id="path4209" />
      <path
         inkscape:connector-curvature="0"
         d="m 234.52,223.11 -4.8,0.67 -3.86,6.33 -1.7,4.83 7.67,-0.38 1.84,-2.93 c 0,0 3.41,-4.34 0.85,-8.52 z"
         style="fill:#e4897b"
         id="path4211" />
      <path
         inkscape:connector-curvature="0"
         d="m 228.46,152.89 c 8,1.42 16.75,31.25 16.75,31.25 l -18.47,6.31 c 0,0 -6.16,-14.81 -5,-24 1.1,-9.08 -0.87,-14.91 6.72,-13.56 z"
         style="fill:#407bff"
         id="path4213" />
      <path
         inkscape:connector-curvature="0"
         d="m 228.46,152.89 c 8,1.42 16.75,31.25 16.75,31.25 l -18.47,6.31 c 0,0 -6.16,-14.81 -5,-24 1.1,-9.08 -0.87,-14.91 6.72,-13.56 z"
         style="opacity:0.3"
         id="path4215" />
    </g>
    <g
       id="freepik--character-1--inject-4"
       transform="matrix(0.26458333,0,0,0.26679729,-283.8178,-91.773148)">
      <path
         inkscape:connector-curvature="0"
         d="m 317.06,141.68 c -3.43,-1.32 -12.37,-4.51 -6.88,-15.28 5.49,-10.77 18.87,3.93 23.42,-1 -0.6,6.25 -5.95,20.35 -16.54,16.28 z"
         style="fill:#263238"
         id="path4218" />
      <path
         inkscape:connector-curvature="0"
         d="m 310.92,142.06 c -4.06,-2.05 -5,-4 -5.27,-4.88 a 0.76,0.76 0 0 1 0.17,-0.71 c 0.76,-0.86 3.15,-3.21 5.2,-1.19 2.05,2.02 4,2.23 0.88,6.53 a 0.78,0.78 0 0 1 -0.98,0.25 z"
         style="fill:#407bff"
         id="path4220" />
      <path
         inkscape:connector-curvature="0"
         d="m 310.92,142.06 c -4.06,-2.05 -5,-4 -5.27,-4.88 a 0.76,0.76 0 0 1 0.17,-0.71 c 0.76,-0.86 3.15,-3.21 5.2,-1.19 2.05,2.02 4,2.23 0.88,6.53 a 0.78,0.78 0 0 1 -0.98,0.25 z"
         style="opacity:0.3"
         id="path4222" />
      <path
         inkscape:connector-curvature="0"
         d="m 304.59,177.39 a 103.54,103.54 0 0 0 -14.85,0 c 3.35,-3.19 2.41,-12.38 1.47,-17.16 l 6.31,5.39 2.81,2.4 a 15.28,15.28 0 0 0 -0.46,2.59 c -0.25,2.95 0.61,5.79 4.72,6.78 z"
         style="fill:#e4897b"
         id="path4224" />
      <path
         inkscape:connector-curvature="0"
         d="m 320.82,188.32 c 0.17,1.82 0.38,3.82 0.63,5.73 0.25,1.91 0.55,3.87 0.87,5.79 a 109.44,109.44 0 0 0 2.5,11.34 c 0.53,1.84 1.1,3.66 1.76,5.43 l 0.87,2.26 a 2.73,2.73 0 0 0 0.62,0.94 2.53,2.53 0 0 0 1.28,0.5 8.22,8.22 0 0 0 2.19,-0.06 23,23 0 0 0 5.09,-1.51 l 2.33,3.35 a 20,20 0 0 1 -2.7,2.07 17.27,17.27 0 0 1 -3.08,1.62 13,13 0 0 1 -3.76,0.92 8.73,8.73 0 0 1 -8.22,-4 11.14,11.14 0 0 1 -1,-1.76 l -0.66,-1.47 c -0.87,-2 -1.61,-4 -2.27,-6 a 93.41,93.41 0 0 1 -3.09,-12.19 c -0.41,-2 -0.73,-4.1 -1,-6.16 -0.27,-2.06 -0.5,-4.09 -0.63,-6.3 z"
         style="fill:#e4897b"
         id="path4226" />
      <path
         inkscape:connector-curvature="0"
         d="m 318.21,179 c 3.32,0.84 5.64,14.5 5.64,14.5 l -9.15,6.22 c 0,0 -8.77,-13.78 -6.22,-17.42 2.66,-3.79 4.88,-4.51 9.73,-3.3 z"
         style="fill:#407bff"
         id="path4228" />
      <path
         inkscape:connector-curvature="0"
         d="m 318.21,179 c 3.32,0.84 5.64,14.5 5.64,14.5 l -9.15,6.22 c 0,0 -8.77,-13.78 -6.22,-17.42 2.66,-3.79 4.88,-4.51 9.73,-3.3 z"
         style="opacity:0.7"
         id="path4230" />
      <polygon
         points="338.39,200.9 337.7,203.7 330.94,218.35 344.51,220.52 351.27,205.87 351.96,203.07 "
         style="fill:#263238"
         id="polygon4232" />
      <polygon
         points="339.16,201.03 338.47,203.82 331.71,218.48 345.28,220.65 352.04,205.99 352.73,203.2 "
         style="fill:#407bff"
         id="polygon4234" />
      <path
         inkscape:connector-curvature="0"
         d="m 338.62,222.29 6.41,-5 -8,-1.68 c 0,0 -3.37,3.92 -2.16,7 z"
         style="fill:#e4897b"
         id="path4236" />
      <polygon
         points="345.03,217.28 346.66,210.71 339.87,209.66 337.01,215.6 "
         style="fill:#e4897b"
         id="polygon4238" />
      <path
         inkscape:connector-curvature="0"
         d="m 318.21,179 c 0,0 3.83,1.35 -3.85,48.61 h -32.71 c 0.55,-13.32 0.56,-21.52 -5.8,-48.84 a 96.59,96.59 0 0 1 13.89,-1.77 103.55,103.55 0 0 1 14.85,0 c 6.41,0.54 13.62,2 13.62,2 z"
         style="fill:#407bff"
         id="path4240" />
      <path
         inkscape:connector-curvature="0"
         d="m 318.21,179 c 0,0 3.83,1.35 -3.85,48.61 h -32.71 c 0.55,-13.32 0.56,-21.52 -5.8,-48.84 a 96.59,96.59 0 0 1 13.89,-1.77 103.55,103.55 0 0 1 14.85,0 c 6.41,0.54 13.62,2 13.62,2 z"
         style="opacity:0.7"
         id="path4242" />
      <polygon
         points="301.06,390.27 299.98,408.92 308.03,408.92 309.11,390.27 "
         style="fill:#e4897b"
         id="polygon4244" />
      <polygon
         points="266.8,390.27 263.34,408.92 271.39,408.92 274.85,390.27 "
         style="fill:#e4897b"
         id="polygon4246" />
      <path
         inkscape:connector-curvature="0"
         d="m 272.21,408 h -9 a 0.64,0.64 0 0 0 -0.64,0.55 l -1,7.16 a 1.29,1.29 0 0 0 1.29,1.43 c 3.15,-0.05 4.67,-0.24 8.65,-0.24 2.45,0 6,0.26 9.41,0.26 3.41,0 3.56,-3.35 2.15,-3.65 -6.31,-1.36 -7.31,-3.23 -9.43,-5 A 2.14,2.14 0 0 0 272.21,408 Z"
         style="fill:#263238"
         id="path4248" />
      <path
         inkscape:connector-curvature="0"
         d="m 308.58,408 h -9.05 a 0.63,0.63 0 0 0 -0.64,0.55 l -1,7.16 a 1.29,1.29 0 0 0 1.29,1.43 c 3.15,-0.05 4.67,-0.24 8.65,-0.24 2.45,0 7.51,0.26 10.89,0.26 3.38,0 3.56,-3.35 2.16,-3.65 -6.32,-1.36 -8.8,-3.23 -10.93,-5 A 2.09,2.09 0 0 0 308.58,408 Z"
         style="fill:#263238"
         id="path4250" />
      <polygon
         points="301.06,390.28 309.11,390.28 308.55,399.89 300.5,399.89 "
         style="fill:#ce6f64"
         id="polygon4252" />
      <polygon
         points="265.01,399.89 266.8,390.28 274.85,390.28 273.07,399.89 "
         style="fill:#ce6f64"
         id="polygon4254" />
      <path
         inkscape:connector-curvature="0"
         d="m 291.15,174.54 a 6.78,6.78 0 0 0 -2.71,2.25 c 0.79,1.29 6.88,3.7 8.53,3.55 a 5.64,5.64 0 0 1 1.13,-3.65 c 0,0 -4.24,-0.14 -6.95,-2.15 z"
         style="fill:#407bff"
         id="path4256" />
      <path
         inkscape:connector-curvature="0"
         d="m 301,174.75 a 10.82,10.82 0 0 1 3,1.94 c -0.34,1.1 -3,3.1 -4.16,3.54 a 6.93,6.93 0 0 0 -1.77,-3.54 7.79,7.79 0 0 0 2.93,-1.94 z"
         style="fill:#407bff"
         id="path4258" />
      <path
         inkscape:connector-curvature="0"
         d="m 314.36,227.63 c 0,0 6.35,62 5.82,86.59 -0.55,25.55 -9.91,83.81 -9.91,83.81 h -10.89 c 0,0 1.73,-56.77 0.76,-81.86 -1.05,-27.35 -9.73,-88.54 -9.73,-88.54 z"
         style="fill:#407bff"
         id="path4260" />
      <path
         inkscape:connector-curvature="0"
         d="m 305.72,227.63 c 0,0 -4.67,55.27 -9.52,86.42 -3.92,25.16 -21.29,84 -21.29,84 h -11 c 0,0 9.06,-56.8 11,-81.69 5,-63 -3.79,-74.12 6.69,-88.71 z"
         style="fill:#407bff"
         id="path4262" />
      <rect
         x="294.73999"
         y="190.50999"
         width="11.75"
         height="11.57"
         rx="3.6900001"
         transform="rotate(-177.98,300.6179,196.29285)"
         style="opacity:0.56999966;fill:#407bff"
         id="rect4264" />
      <path
         inkscape:connector-curvature="0"
         d="m 300.33,168 a 15.28,15.28 0 0 0 -0.46,2.59 c -2.19,-0.38 -5.06,-2.55 -5.28,-4.62 a 6.51,6.51 0 0 1 0.12,-2.58 l 2.81,2.21 z"
         style="fill:#ce6f64"
         id="path4266" />
      <path
         inkscape:connector-curvature="0"
         d="m 288.62,149.36 c 0.49,8 0.53,11.36 4.56,15.46 6.06,6.16 15.75,3.81 17.65,-4.15 1.72,-7.17 0.63,-19 -7.18,-22.19 a 10.9,10.9 0 0 0 -15.03,10.88 z"
         style="fill:#e4897b"
         id="path4268" />
      <path
         inkscape:connector-curvature="0"
         d="m 287.37,152.78 a 0.2,0.2 0 0 1 -0.11,0 0.24,0.24 0 0 1 -0.12,-0.33 c 1,-2.06 9.07,-3.47 10,-3.63 a 34.11,34.11 0 0 1 7.9,-0.2 2.33,2.33 0 0 1 2,0 23.29,23.29 0 0 1 5.14,0 0.24,0.24 0 0 1 0.22,0.28 0.25,0.25 0 0 1 -0.28,0.21 23.31,23.31 0 0 0 -5.09,0 0.29,0.29 0 0 1 -0.13,0 1.77,1.77 0 0 0 -1.64,0 0.22,0.22 0 0 1 -0.17,0 32.53,32.53 0 0 0 -7.85,0.2 c -2.41,0.41 -8.86,1.8 -9.61,3.35 a 0.24,0.24 0 0 1 -0.26,0.12 z"
         style="fill:#263238"
         id="path4270" />
      <path
         inkscape:connector-curvature="0"
         d="m 301.05,155.35 h -0.24 a 3.46,3.46 0 0 1 -2.66,-1.27 c -1.44,-1.83 -0.87,-4.92 -0.85,-5 a 0.12,0.12 0 0 1 0.15,-0.1 0.12,0.12 0 0 1 0.1,0.14 c 0,0 -0.57,3.12 0.8,4.86 a 3.19,3.19 0 0 0 2.48,1.17 3.06,3.06 0 0 0 2.48,-0.89 c 1.69,-1.71 1.47,-5.31 1.47,-5.35 a 0.12,0.12 0 0 1 0.11,-0.13 v 0 a 0.13,0.13 0 0 1 0.13,0.12 c 0,0.15 0.22,3.75 -1.54,5.54 a 3.32,3.32 0 0 1 -2.43,0.91 z"
         style="fill:#263238"
         id="path4272" />
      <path
         inkscape:connector-curvature="0"
         d="m 309.92,155.17 a 2.68,2.68 0 0 1 -2.06,-0.85 c -1.52,-1.67 -1,-5.15 -1,-5.3 a 0.11,0.11 0 0 1 0.14,-0.1 0.12,0.12 0 0 1 0.1,0.14 c 0,0 -0.52,3.51 0.91,5.09 a 2.5,2.5 0 0 0 2.1,0.77 1.73,1.73 0 0 0 1.33,-0.7 c 1.19,-1.58 0.35,-5.31 0.34,-5.35 a 0.14,0.14 0 0 1 0.1,-0.15 0.12,0.12 0 0 1 0.15,0.1 c 0,0.16 0.87,3.88 -0.39,5.55 a 2,2 0 0 1 -1.52,0.8 z"
         style="fill:#263238"
         id="path4274" />
      <path
         inkscape:connector-curvature="0"
         d="m 287.37,153.58 c 12.33,-2.5 17.54,-13.75 17.54,-13.75 0,0 -1.57,-5 -8.77,-4.33 -5.73,0.55 -17.3,10.58 -8.77,18.08 z"
         style="fill:#263238"
         id="path4276" />
      <path
         inkscape:connector-curvature="0"
         d="m 282.46,141.8 c 3.9,-1.25 14,-4.24 7.2,-16.05 -6.8,-11.81 -21.56,3.32 -27,-2.18 1.01,6.72 7.8,22.08 19.8,18.23 z"
         style="fill:#263238"
         id="path4278" />
      <path
         inkscape:connector-curvature="0"
         d="m 310.91,148.51 c -4.64,-9.7 -12.6,-10.43 -12.6,-10.43 0,0 4.47,-3.91 10.6,-0.11 4.39,2.73 3.71,7.43 2,10.54 z"
         style="fill:#263238"
         id="path4280" />
      <path
         inkscape:connector-curvature="0"
         d="m 286.69,153.79 a 5.84,5.84 0 0 0 2.14,3.92 c 1.6,1.27 3.19,0 3.41,-1.9 0.2,-1.74 -0.4,-4.49 -2.33,-5 a 2.62,2.62 0 0 0 -3.22,2.98 z"
         style="fill:#e4897b"
         id="path4282" />
      <ellipse
         cx="300.67001"
         cy="151.59"
         rx="0.76999998"
         ry="1.1799999"
         style="fill:#263238"
         id="ellipse4284" />
      <ellipse
         cx="308.14001"
         cy="151.59"
         rx="0.76999998"
         ry="1.1799999"
         style="fill:#263238"
         id="ellipse4286" />
      <path
         inkscape:connector-curvature="0"
         d="m 308,150.45 1.56,-0.45 c 0,0 -0.85,1.22 -1.56,0.45 z"
         style="fill:#263238"
         id="path4288" />
      <path
         inkscape:connector-curvature="0"
         d="m 306.12,152.7 a 17.57,17.57 0 0 0 2.32,4.15 2.8,2.8 0 0 1 -2.32,0.43 z"
         style="fill:#de5753"
         id="path4290" />
      <path
         inkscape:connector-curvature="0"
         d="m 303.84,159.84 a 5.46,5.46 0 0 1 -4.52,-2.18 0.2,0.2 0 0 1 0.06,-0.27 0.19,0.19 0 0 1 0.26,0.06 5.19,5.19 0 0 0 4.2,2 0.2,0.2 0 0 1 0.19,0.19 0.19,0.19 0 0 1 -0.19,0.2 z"
         style="fill:#263238"
         id="path4292" />
      <path
         inkscape:connector-curvature="0"
         d="m 298.87,146.17 a 0.38,0.38 0 0 1 -0.2,-0.7 5.2,5.2 0 0 1 4.48,-0.36 0.38,0.38 0 0 1 0.21,0.5 0.39,0.39 0 0 1 -0.5,0.2 4.52,4.52 0 0 0 -3.79,0.31 0.37,0.37 0 0 1 -0.2,0.05 z"
         style="fill:#263238"
         id="path4294" />
      <path
         inkscape:connector-curvature="0"
         d="m 309.69,145.78 a 0.39,0.39 0 0 1 -0.21,-0.06 3,3 0 0 0 -2.73,-0.34 0.38483763,0.38483763 0 0 1 -0.32,-0.7 3.78,3.78 0 0 1 3.46,0.4 0.38,0.38 0 0 1 0.12,0.52 0.37,0.37 0 0 1 -0.32,0.18 z"
         style="fill:#263238"
         id="path4296" />
      <path
         inkscape:connector-curvature="0"
         d="m 275,409.4 a 10.09,10.09 0 0 1 -2.13,-0.28 0.2,0.2 0 0 1 -0.15,-0.16 0.19,0.19 0 0 1 0.08,-0.2 c 0.28,-0.19 2.74,-1.77 3.67,-1.34 a 0.68,0.68 0 0 1 0.39,0.54 1.1,1.1 0 0 1 -0.32,1 2.29,2.29 0 0 1 -1.54,0.44 z m -1.57,-0.57 c 1.39,0.28 2.43,0.23 2.84,-0.14 a 0.72,0.72 0 0 0 0.19,-0.67 0.27,0.27 0 0 0 -0.15,-0.24 c -0.52,-0.22 -1.92,0.45 -2.91,1.05 z"
         style="fill:#407bff"
         id="path4298" />
      <path
         inkscape:connector-curvature="0"
         d="m 272.88,409.12 a 0.19,0.19 0 0 1 -0.1,0 0.19,0.19 0 0 1 -0.09,-0.17 c 0,-0.1 0,-2.42 0.88,-3.2 a 1,1 0 0 1 0.82,-0.25 0.68,0.68 0 0 1 0.65,0.54 c 0.18,0.91 -1.29,2.65 -2.06,3.08 a 0.17,0.17 0 0 1 -0.1,0 z m 1.37,-3.26 a 0.59,0.59 0 0 0 -0.41,0.16 4.34,4.34 0 0 0 -0.75,2.51 c 0.77,-0.61 1.67,-1.9 1.56,-2.45 0,-0.08 -0.07,-0.19 -0.31,-0.22 z"
         style="fill:#407bff"
         id="path4300" />
      <path
         inkscape:connector-curvature="0"
         d="m 311.6,409.4 a 14.16,14.16 0 0 1 -2.53,-0.28 0.2,0.2 0 0 1 -0.06,-0.37 c 0.37,-0.19 3.58,-1.83 4.57,-1.29 a 0.62,0.62 0 0 1 0.33,0.51 1.11,1.11 0 0 1 -0.35,0.94 3.07,3.07 0 0 1 -1.96,0.49 z m -1.87,-0.57 c 1.77,0.3 3.08,0.22 3.56,-0.22 a 0.68,0.68 0 0 0 0.22,-0.6 0.22,0.22 0 0 0 -0.12,-0.2 c -0.53,-0.3 -2.39,0.4 -3.66,1.02 z"
         style="fill:#407bff"
         id="path4302" />
      <path
         inkscape:connector-curvature="0"
         d="m 309.1,409.12 a 0.15,0.15 0 0 1 -0.11,0 0.17,0.17 0 0 1 -0.08,-0.17 c 0,-0.1 0.19,-2.27 1.21,-3.11 a 1.38,1.38 0 0 1 1.06,-0.33 c 0.56,0 0.69,0.36 0.72,0.54 0.15,0.93 -1.73,2.65 -2.71,3.09 z m 1.92,-3.26 a 1,1 0 0 0 -0.65,0.24 4.34,4.34 0 0 0 -1,2.47 c 1,-0.6 2.25,-1.95 2.16,-2.49 0,-0.05 0,-0.18 -0.37,-0.22 z"
         style="fill:#407bff"
         id="path4304" />
      <path
         inkscape:connector-curvature="0"
         d="M 300.48,150.45 302,150 c 0,0 -0.76,1.22 -1.52,0.45 z"
         style="fill:#263238"
         id="path4306" />
      <polygon
         points="277.75,391.29 275.37,398.29 263.08,398.29 263.19,391.13 "
         style="fill:#407bff"
         id="polygon4308" />
      <polygon
         points="277.75,391.29 275.37,398.29 263.08,398.29 263.19,391.13 "
         style="opacity:0.7;fill:#ffffff"
         id="polygon4310" />
      <polygon
         points="312.58,391.29 311.71,398.29 298.39,398.29 298.49,391.13 "
         style="fill:#407bff"
         id="polygon4312" />
      <polygon
         points="312.58,391.29 311.71,398.29 298.39,398.29 298.49,391.13 "
         style="opacity:0.7;fill:#ffffff"
         id="polygon4314" />
      <path
         inkscape:connector-curvature="0"
         d="m 281.29,226 -1.47,2.93 c -0.12,0.22 0.15,0.45 0.53,0.45 h 34.3 c 0.29,0 0.54,-0.14 0.56,-0.33 l 0.29,-2.92 c 0,-0.21 -0.23,-0.38 -0.56,-0.38 h -33.12 a 0.58,0.58 0 0 0 -0.53,0.25 z"
         style="fill:#407bff"
         id="path4316" />
      <path
         inkscape:connector-curvature="0"
         d="m 281.29,226 -1.47,2.93 c -0.12,0.22 0.15,0.45 0.53,0.45 h 34.3 c 0.29,0 0.54,-0.14 0.56,-0.33 l 0.29,-2.92 c 0,-0.21 -0.23,-0.38 -0.56,-0.38 h -33.12 a 0.58,0.58 0 0 0 -0.53,0.25 z"
         style="opacity:0.6;fill:#ffffff"
         id="path4318" />
      <path
         inkscape:connector-curvature="0"
         d="m 284.34,229.41 h -0.89 c -0.18,0 -0.31,-0.09 -0.3,-0.2 l 0.42,-3.81 c 0,-0.11 0.16,-0.2 0.34,-0.2 h 0.89 c 0.17,0 0.31,0.09 0.3,0.2 l -0.42,3.81 c -0.01,0.11 -0.17,0.2 -0.34,0.2 z"
         style="fill:#407bff"
         id="path4320" />
      <path
         inkscape:connector-curvature="0"
         d="m 313,229.41 h -0.89 c -0.17,0 -0.31,-0.09 -0.3,-0.2 l 0.42,-3.81 c 0,-0.11 0.17,-0.2 0.34,-0.2 h 0.89 c 0.18,0 0.31,0.09 0.3,0.2 l -0.42,3.81 c -0.01,0.11 -0.16,0.2 -0.34,0.2 z"
         style="fill:#407bff"
         id="path4322" />
      <path
         inkscape:connector-curvature="0"
         d="m 301.41,229.41 h -0.88 c -0.18,0 -0.31,-0.09 -0.3,-0.2 l 0.41,-3.81 c 0,-0.11 0.17,-0.2 0.35,-0.2 h 0.89 c 0.17,0 0.31,0.09 0.29,0.2 l -0.41,3.81 c -0.01,0.11 -0.17,0.2 -0.35,0.2 z"
         style="fill:#407bff"
         id="path4324" />
      <path
         inkscape:connector-curvature="0"
         d="m 287.8,224 h 1.45 a 0.78,0.78 0 0 0 0.76,-0.67 v 0 a 0.59,0.59 0 0 0 -0.59,-0.68 H 288 a 0.78,0.78 0 0 0 -0.76,0.68 v 0 a 0.58,0.58 0 0 0 0.56,0.67 z"
         style="fill:#e0e0e0"
         id="path4326" />
      <path
         inkscape:connector-curvature="0"
         d="m 289.2,225.76 0.23,-1.9 a 0.76,0.76 0 0 0 -0.78,-0.88 v 0 a 1,1 0 0 0 -1,0.88 l -0.23,1.9 a 0.76,0.76 0 0 0 0.78,0.88 v 0 a 1,1 0 0 0 1,-0.88 z"
         style="fill:#e0e0e0"
         id="path4328" />
      <path
         inkscape:connector-curvature="0"
         d="M 308.54,224 H 310 a 0.77,0.77 0 0 0 0.75,-0.67 v 0 a 0.59,0.59 0 0 0 -0.59,-0.68 h -1.46 a 0.8,0.8 0 0 0 -0.76,0.68 v 0 a 0.59,0.59 0 0 0 0.6,0.67 z"
         style="fill:#e0e0e0"
         id="path4330" />
      <path
         inkscape:connector-curvature="0"
         d="m 309.93,225.76 0.23,-1.9 a 0.76,0.76 0 0 0 -0.78,-0.88 v 0 a 1,1 0 0 0 -1,0.88 l -0.23,1.9 a 0.77,0.77 0 0 0 0.78,0.88 v 0 a 1,1 0 0 0 1,-0.88 z"
         style="fill:#e0e0e0"
         id="path4332" />
      <path
         inkscape:connector-curvature="0"
         d="m 283.25,177 1.63,-0.16 a 0.54,0.54 0 0 1 0.56,0.39 c 6.79,22.56 4.2,46.14 4.2,46.14 h -2.09 c 1.58,-28.06 -3.89,-42.71 -4.75,-45.72 a 0.52,0.52 0 0 1 0.45,-0.65 z"
         style="fill:#407bff"
         id="path4334" />
      <path
         inkscape:connector-curvature="0"
         d="m 283.25,177 1.63,-0.16 a 0.54,0.54 0 0 1 0.56,0.39 c 6.79,22.56 4.2,46.14 4.2,46.14 h -2.09 c 1.58,-28.06 -3.89,-42.71 -4.75,-45.72 a 0.52,0.52 0 0 1 0.45,-0.65 z"
         style="opacity:0.6;fill:#ffffff"
         id="path4336" />
      <path
         inkscape:connector-curvature="0"
         d="m 308.34,176.91 1.43,0.2 a 0.55,0.55 0 0 1 0.44,0.45 c 4.06,17.52 0.17,45.76 0.17,45.76 h -2.1 c 2.66,-30.65 -0.06,-43 -0.52,-45.82 a 0.52,0.52 0 0 1 0.58,-0.59 z"
         style="fill:#407bff"
         id="path4338" />
      <path
         inkscape:connector-curvature="0"
         d="m 308.34,176.91 1.43,0.2 a 0.55,0.55 0 0 1 0.44,0.45 c 4.06,17.52 0.17,45.76 0.17,45.76 h -2.1 c 2.66,-30.65 -0.06,-43 -0.52,-45.82 a 0.52,0.52 0 0 1 0.58,-0.59 z"
         style="opacity:0.6;fill:#ffffff"
         id="path4340" />
      <path
         inkscape:connector-curvature="0"
         d="m 280.25,188.62 c 0,2.25 0.07,4.65 0.2,7 0.13,2.35 0.23,4.67 0.47,7 0.24,2.33 0.54,4.56 1,6.74 0.22,1.08 0.47,2.14 0.76,3.14 q 0.23,0.75 0.48,1.44 l 0.23,0.58 a 0.07,0.07 0 0 0 0,0.06 c 0,0.09 0.38,0.41 1.13,0.63 a 10.75,10.75 0 0 0 2.73,0.36 37.2,37.2 0 0 0 6.59,-0.54 c 2.27,-0.35 4.57,-0.84 6.85,-1.4 2.28,-0.56 4.61,-1.18 6.85,-1.82 l 1.54,3.77 a 77.54,77.54 0 0 1 -13.94,5.42 38,38 0 0 1 -7.76,1.39 17.78,17.78 0 0 1 -4.47,-0.25 10.7,10.7 0 0 1 -2.55,-0.84 8,8 0 0 1 -2.58,-1.93 7.49,7.49 0 0 1 -1,-1.43 c -0.16,-0.29 -0.2,-0.39 -0.29,-0.57 l -0.24,-0.49 c -0.29,-0.66 -0.56,-1.31 -0.8,-2 a 35.89,35.89 0 0 1 -1.18,-3.84 63.52,63.52 0 0 1 -1.41,-7.54 101.51,101.51 0 0 1 -0.85,-15 z"
         style="fill:#e4897b"
         id="path4342" />
      <path
         inkscape:connector-curvature="0"
         d="m 305.77,212.83 2.53,-7.73 4.31,7 c 0,0 -2.53,4.51 -5.88,4.44 z"
         style="fill:#e4897b"
         id="path4344" />
      <polygon
         points="308.3,205.1 313.92,201.33 317.22,207.35 312.61,212.06 "
         style="fill:#e4897b"
         id="polygon4346" />
      <path
         inkscape:connector-curvature="0"
         d="m 275.85,178.79 c -3.28,1 -7.21,12.28 -7.21,12.28 l 12.71,9.09 c 0,0 4.64,-9.42 3.26,-13.66 -1.43,-4.41 -5.02,-8.85 -8.76,-7.71 z"
         style="fill:#407bff"
         id="path4348" />
      <path
         inkscape:connector-curvature="0"
         d="m 275.85,178.79 c -3.28,1 -7.21,12.28 -7.21,12.28 l 12.71,9.09 c 0,0 4.64,-9.42 3.26,-13.66 -1.43,-4.41 -5.02,-8.85 -8.76,-7.71 z"
         style="opacity:0.7"
         id="path4350" />
      <path
         inkscape:connector-curvature="0"
         d="m 288.8,141.75 c 4.45,-1.67 5.7,-3.63 6,-4.48 a 0.8,0.8 0 0 0 -0.1,-0.76 c -0.69,-1 -2.91,-3.7 -5.27,-1.83 -2.36,1.87 -4.38,1.87 -1.67,6.7 a 0.82,0.82 0 0 0 1.04,0.37 z"
         style="fill:#407bff"
         id="path4352" />
      <path
         inkscape:connector-curvature="0"
         d="m 288.8,141.75 c 4.45,-1.67 5.7,-3.63 6,-4.48 a 0.8,0.8 0 0 0 -0.1,-0.76 c -0.69,-1 -2.91,-3.7 -5.27,-1.83 -2.36,1.87 -4.38,1.87 -1.67,6.7 a 0.82,0.82 0 0 0 1.04,0.37 z"
         style="opacity:0.3"
         id="path4354" />
    </g>
    <path
       id="path4846"
       d="m -261.88358,-64.98006 c 0.42836,-2.64081 -1.36234,-5.12868 -3.99944,-5.55678 -2.6371,-0.42809 -5.12234,1.36552 -5.5507,4.00606 -0.42836,2.64054 1.36234,5.12842 3.99944,5.55678 2.63711,0.42809 5.12234,-1.36552 5.5507,-4.00606 z"
       inkscape:connector-curvature="0"
       style="fill:#407bff;stroke-width:0.26458332;fill-opacity:1" />
    <path
       id="path4848"
       stroke-miterlimit="10"
       d="m -264.01083,-65.1195 c 0.34528,-1.46341 -0.55959,-2.92946 -2.02115,-3.27474 -1.4613,-0.34528 -2.92603,0.56118 -3.27158,2.02432 -0.34528,1.46341 0.55933,2.92974 2.02089,3.27502 1.46156,0.34528 2.92629,-0.56118 3.27184,-2.0246 z"
       inkscape:connector-curvature="0"
       style="fill:#407bff;stroke:#ffffff;stroke-width:0.52916664;stroke-linecap:round;stroke-linejoin:round;stroke-miterlimit:10;fill-opacity:1" />
    <path
       id="path4850"
       d="m -266.66222,-67.53461 v 1.78038 l -0.93848,0.9398"
       inkscape:connector-curvature="0"
       style="fill:#6842c2;stroke-width:0.26458332" />
    <path
       id="path4852"
       stroke-miterlimit="10"
       d="m -266.66222,-67.53461 v 1.78038 l -0.93848,0.9398"
       inkscape:connector-curvature="0"
       style="fill:none;stroke:#ffffff;stroke-width:0.52916664;stroke-linecap:round;stroke-linejoin:round;stroke-miterlimit:10" />
    <path
       id="path4854"
       stroke-miterlimit="10"
       d="m -266.66222,-68.47679 v 0.26088"
       inkscape:connector-curvature="0"
       style="fill:none;stroke:#ffffff;stroke-width:0.52916664;stroke-linecap:round;stroke-linejoin:round;stroke-miterlimit:10" />
    <path
       id="path4856"
       stroke-miterlimit="10"
       d="m -266.66222,-63.2899 v 0.2585"
       inkscape:connector-curvature="0"
       style="fill:none;stroke:#ffffff;stroke-width:0.52916664;stroke-linecap:round;stroke-linejoin:round;stroke-miterlimit:10" />
    <path
       id="path4858"
       stroke-miterlimit="10"
       d="m -263.9431,-65.75423 h -0.26061"
       inkscape:connector-curvature="0"
       style="fill:none;stroke:#ffffff;stroke-width:0.52916664;stroke-linecap:round;stroke-linejoin:round;stroke-miterlimit:10" />
    <path
       id="path4860"
       stroke-miterlimit="10"
       d="m -269.12047,-65.75423 h -0.26087"
       inkscape:connector-curvature="0"
       style="fill:none;stroke:#ffffff;stroke-width:0.52916664;stroke-linecap:round;stroke-linejoin:round;stroke-miterlimit:10" />
    <g
       id="g6194"
       transform="matrix(0.58798816,0,0,0.58798816,-180.5484,-249.05247)">
      <path
         id="path6059"
         style="fill:#407bff;stroke-width:0.26458332"
         d="m -104.32499,440.46727 h -52.89815 v -9.94304 h 52.89815 a 1.0265833,1.0265833 0 0 1 1.02658,1.02658 v 7.88988 a 1.0265833,1.0265833 0 0 1 -1.02658,1.02658 z"
         inkscape:connector-curvature="0" />
      <path
         id="path6061"
         style="opacity:0.3;stroke-width:0.26458332"
         d="m -104.32499,440.46727 h -52.89815 v -9.94304 h 52.89815 a 1.0265833,1.0265833 0 0 1 1.02658,1.02658 v 7.88988 a 1.0265833,1.0265833 0 0 1 -1.02658,1.02658 z"
         inkscape:connector-curvature="0" />
      <rect
         id="rect6063"
         style="opacity:0.9;fill:#ffffff;stroke-width:0.26458332"
         transform="scale(-1)"
         height="9.9324589"
         width="18.367374"
         y="-440.46725"
         x="125.88589" />
      <rect
         id="rect6065"
         style="opacity:0.9;fill:#ffffff;stroke-width:0.26458332"
         transform="scale(-1)"
         height="9.9324589"
         width="9.3133335"
         y="-440.46725"
         x="108.68268" />
      <path
         id="path6067"
         style="fill:#407bff;stroke-width:0.26458332"
         d="m -174.74385,430.53482 h 17.51013 v 9.94304 h -17.51013 a 1.031875,1.031875 0 0 1 -1.03187,-1.03188 v -7.87929 a 1.031875,1.031875 0 0 1 1.03187,-1.03187 z"
         inkscape:connector-curvature="0" />
      <path
         id="path6069"
         style="opacity:0.9;fill:#ffffff;stroke-width:0.26458332"
         d="m -175.77572,431.95828 h 15.32731 a 1.3467291,1.3467291 0 0 1 1.34673,1.34672 v 4.38944 a 1.3467291,1.3467291 0 0 1 -1.34673,1.34673 h -15.32731 z"
         inkscape:connector-curvature="0" />
      <path
         id="path6071"
         style="fill:#407bff;stroke-width:0.26458332"
         d="m -100.49912,430.53482 h -52.89814 v -6.58813 h 52.89814 a 1.0265833,1.0265833 0 0 1 1.026586,1.02659 v 4.53495 a 1.0265833,1.0265833 0 0 1 -1.026586,1.02659 z"
         inkscape:connector-curvature="0" />
      <path
         id="path6073"
         style="opacity:0.3;fill:#ffffff;stroke-width:0.26458332"
         d="m -100.49912,430.53482 h -52.89814 v -6.58813 h 52.89814 a 1.0265833,1.0265833 0 0 1 1.026586,1.02659 v 4.53495 a 1.0265833,1.0265833 0 0 1 -1.026586,1.02659 z"
         inkscape:connector-curvature="0" />
      <path
         id="path6075"
         style="opacity:0.2;stroke-width:0.26458332"
         d="m -100.49912,430.53482 h -52.89814 v -6.58813 h 52.89814 a 1.0265833,1.0265833 0 0 1 1.026586,1.02659 v 4.53495 a 1.0265833,1.0265833 0 0 1 -1.026586,1.02659 z"
         inkscape:connector-curvature="0" />
      <path
         id="path6077"
         style="fill:#407bff;stroke-width:0.26458332"
         d="m -170.91797,423.94669 h 17.52071 v 6.58813 h -17.52071 a 1.031875,1.031875 0 0 1 -1.03188,-1.03188 v -4.52437 a 1.031875,1.031875 0 0 1 1.03188,-1.03188 z"
         inkscape:connector-curvature="0" />
      <path
         id="path6079"
         style="opacity:0.3;fill:#ffffff;stroke-width:0.26458332"
         d="m -170.91797,423.94669 h 17.52071 v 6.58813 h -17.52071 a 1.031875,1.031875 0 0 1 -1.03188,-1.03188 v -4.52437 a 1.031875,1.031875 0 0 1 1.03188,-1.03188 z"
         inkscape:connector-curvature="0" />
      <path
         id="path6081"
         style="opacity:0.9;fill:#ffffff;stroke-width:0.26458332"
         d="m -171.94985,425.3728 h 15.32467 a 1.3467291,1.3467291 0 0 1 1.34673,1.34673 v 1.05833 a 1.3467291,1.3467291 0 0 1 -1.34673,1.32292 h -15.32467 z"
         inkscape:connector-curvature="0" />
      <rect
         id="rect6083"
         style="opacity:0.4;fill:#263238;stroke-width:0.26458332"
         transform="scale(-1)"
         height="3.114146"
         width="23.976542"
         y="-428.79916"
         x="124.68732" />
      <path
         id="path6085"
         style="fill:#407bff;stroke-width:0.26458332"
         d="m -144.2956,421.76653 h 7.56444 v 2.18281 h -7.56444 a 0.16933333,0.16933333 0 0 1 -0.16933,-0.16934 v -1.85208 a 0.16933333,0.16933333 0 0 1 0.16933,-0.16139 z"
         inkscape:connector-curvature="0" />
      <path
         id="path6087"
         style="opacity:0.2;stroke-width:0.26458332"
         d="m -144.2956,421.76653 h 7.56444 v 2.18281 h -7.56444 a 0.16933333,0.16933333 0 0 1 -0.16933,-0.16934 v -1.85208 a 0.16933333,0.16933333 0 0 1 0.16933,-0.16139 z"
         inkscape:connector-curvature="0" />
      <path
         id="path6089"
         style="fill:#407bff;stroke-width:0.26458332"
         d="m -133.8472,423.95198 h -2.87337 v -2.18281 h 2.88395 a 0.16933333,0.16933333 0 0 1 0.16934,0.16934 v 1.85208 a 0.16933333,0.16933333 0 0 1 -0.17992,0.16139 z"
         inkscape:connector-curvature="0" />
      <path
         id="path6091"
         style="opacity:0.9;fill:#ffffff;stroke-width:0.26458332"
         d="m -133.67522,423.71651 h -2.52148 a 0.22225,0.22225 0 0 1 -0.22225,-0.22225 v -1.27 a 0.22225,0.22225 0 0 1 0.22225,-0.22225 h 2.52148 z"
         inkscape:connector-curvature="0" />
      <path
         id="path6093"
         style="fill:#263238;stroke-width:0.26458332"
         d="m -144.9253,420.18167 h 7.56443 v 1.5875 h -7.56443 a 0.16933333,0.16933333 0 0 1 -0.16934,-0.16933 v -1.24619 a 0.16933333,0.16933333 0 0 1 0.16934,-0.17198 z"
         inkscape:connector-curvature="0" />
      <path
         id="path6095"
         style="opacity:0.2;stroke-width:0.26458332"
         d="m -144.9253,420.18167 h 7.56443 v 1.5875 h -7.56443 a 0.16933333,0.16933333 0 0 1 -0.16934,-0.16933 v -1.24619 a 0.16933333,0.16933333 0 0 1 0.16934,-0.17198 z"
         inkscape:connector-curvature="0" />
      <path
         id="path6097"
         style="fill:#263238;stroke-width:0.26458332"
         d="m -134.47691,421.76917 h -2.88396 v -1.5875 h 2.88396 a 0.16933333,0.16933333 0 0 1 0.16933,0.16933 v 1.24619 a 0.16933333,0.16933333 0 0 1 -0.16933,0.17198 z"
         inkscape:connector-curvature="0" />
      <path
         id="path6099"
         style="opacity:0.9;fill:#ffffff;stroke-width:0.26458332"
         d="m -134.30493,421.53369 h -2.52148 a 0.22225,0.22225 0 0 1 -0.22225,-0.22225 v -0.67204 a 0.22225,0.22225 0 0 1 0.22225,-0.22225 h 2.52148 z"
         inkscape:connector-curvature="0" />
      <path
         id="path6101"
         style="fill:#407bff;stroke-width:0.26458332"
         d="m -143.96222,418.54919 h 7.56444 v 1.63513 h -7.56444 a 0.16933333,0.16933333 0 0 1 -0.16933,-0.16934 v -1.29645 a 0.16933333,0.16933333 0 0 1 0.16933,-0.16934 z"
         inkscape:connector-curvature="0" />
      <path
         id="path6103"
         style="opacity:0.3;stroke-width:0.26458332"
         d="m -143.96222,418.54919 h 7.56444 v 1.63513 h -7.56444 a 0.16933333,0.16933333 0 0 1 -0.16933,-0.16934 v -1.29645 a 0.16933333,0.16933333 0 0 1 0.16933,-0.16934 z"
         inkscape:connector-curvature="0" />
      <path
         id="path6105"
         style="fill:#407bff;stroke-width:0.26458332"
         d="m -133.51382,420.18167 h -2.88396 v -1.63513 h 2.88396 a 0.16933333,0.16933333 0 0 1 0.16933,0.16934 v 1.29381 a 0.16933333,0.16933333 0 0 1 -0.16933,0.17198 z"
         inkscape:connector-curvature="0" />
      <path
         id="path6107"
         style="opacity:0.9;fill:#ffffff;stroke-width:0.26458332"
         d="m -133.34449,419.94883 h -2.52148 a 0.22225,0.22225 0 0 1 -0.22225,-0.22225 v -0.72231 a 0.22225,0.22225 0 0 1 0.22225,-0.22225 h 2.52148 z"
         inkscape:connector-curvature="0" />
      <path
         id="path6109"
         style="fill:#407bff;stroke-width:0.26458332"
         d="m -144.59193,417.45911 h 7.56444 v 1.08479 h -7.56444 a 0.16933333,0.16933333 0 0 1 -0.16933,-0.16933 v -0.74613 a 0.16933333,0.16933333 0 0 1 0.16933,-0.16933 z"
         inkscape:connector-curvature="0" />
      <path
         id="path6111"
         style="opacity:0.3;fill:#ffffff;stroke-width:0.26458332"
         d="m -144.59193,417.45911 h 7.56444 v 1.08479 h -7.56444 a 0.16933333,0.16933333 0 0 1 -0.16933,-0.16933 v -0.74613 a 0.16933333,0.16933333 0 0 1 0.16933,-0.16933 z"
         inkscape:connector-curvature="0" />
      <path
         id="path6113"
         style="opacity:0.2;stroke-width:0.26458332"
         d="m -144.59193,417.45911 h 7.56444 v 1.08479 h -7.56444 a 0.16933333,0.16933333 0 0 1 -0.16933,-0.16933 v -0.74613 a 0.16933333,0.16933333 0 0 1 0.16933,-0.16933 z"
         inkscape:connector-curvature="0" />
      <path
         id="path6115"
         style="fill:#407bff;stroke-width:0.26458332"
         d="m -134.14089,418.55448 h -2.88396 v -1.08479 h 2.88396 a 0.16933333,0.16933333 0 0 1 0.16934,0.16933 v 0.74348 a 0.16933333,0.16933333 0 0 1 -0.16934,0.17198 z"
         inkscape:connector-curvature="0" />
      <path
         id="path6117"
         style="opacity:0.3;fill:#ffffff;stroke-width:0.26458332"
         d="m -134.14089,418.55448 h -2.88396 v -1.08479 h 2.88396 a 0.16933333,0.16933333 0 0 1 0.16934,0.16933 v 0.74348 a 0.16933333,0.16933333 0 0 1 -0.16934,0.17198 z"
         inkscape:connector-curvature="0" />
      <path
         id="path6119"
         style="opacity:0.9;fill:#ffffff;stroke-width:0.26458332"
         d="m -133.9742,418.31371 h -2.52148 a 0.22225,0.22225 0 0 1 -0.22225,-0.22225 v -0.17198 a 0.22225,0.22225 0 0 1 0.22225,-0.22225 h 2.52148 v 0.61383 z"
         inkscape:connector-curvature="0" />
      <path
         id="path6121"
         style="fill:#263238;stroke-width:0.26458332"
         d="m -144.9253,415.87161 h 7.56443 v 1.5875 h -7.56443 a 0.16933333,0.16933333 0 0 1 -0.16934,-0.16933 v -1.24619 a 0.16933333,0.16933333 0 0 1 0.16934,-0.17198 z"
         inkscape:connector-curvature="0" />
      <path
         id="path6123"
         style="opacity:0.2;stroke-width:0.26458332"
         d="m -144.9253,415.87161 h 7.56443 v 1.5875 h -7.56443 a 0.16933333,0.16933333 0 0 1 -0.16934,-0.16933 v -1.24619 a 0.16933333,0.16933333 0 0 1 0.16934,-0.17198 z"
         inkscape:connector-curvature="0" />
      <path
         id="path6125"
         style="fill:#263238;stroke-width:0.26458332"
         d="m -135.43735,417.47234 h -1.91558 v -1.5875 h 1.92352 a 0.16933333,0.16933333 0 0 1 0.16934,0.16933 v 1.24619 a 0.16933333,0.16933333 0 0 1 -0.17728,0.17198 z"
         inkscape:connector-curvature="0" />
      <path
         id="path6127"
         style="opacity:0.9;fill:#ffffff;stroke-width:0.26458332"
         d="m -135.26537,417.22892 h -1.56104 a 0.22225,0.22225 0 0 1 -0.22225,-0.22225 v -0.67204 a 0.22225,0.22225 0 0 1 0.22225,-0.22225 h 1.56104 z"
         inkscape:connector-curvature="0" />
      <path
         id="path6129"
         style="fill:#407bff;stroke-width:0.26458332"
         d="m -143.96222,414.24442 h 7.56444 v 1.62719 h -7.56444 a 0.16933333,0.16933333 0 0 1 -0.16933,-0.16933 v -1.29646 a 0.16933333,0.16933333 0 0 1 0.16933,-0.1614 z"
         inkscape:connector-curvature="0" />
      <path
         id="path6131"
         style="opacity:0.3;stroke-width:0.26458332"
         d="m -143.96222,414.24442 h 7.56444 v 1.62719 h -7.56444 a 0.16933333,0.16933333 0 0 1 -0.16933,-0.16933 v -1.29646 a 0.16933333,0.16933333 0 0 1 0.16933,-0.1614 z"
         inkscape:connector-curvature="0" />
      <path
         id="path6133"
         style="fill:#407bff;stroke-width:0.26458332"
         d="m -134.47426,415.87955 h -1.92352 v -1.62719 h 1.92352 a 0.16933333,0.16933333 0 0 1 0.16933,0.16933 v 1.29382 a 0.16933333,0.16933333 0 0 1 -0.16933,0.16404 z"
         inkscape:connector-curvature="0" />
      <path
         id="path6135"
         style="opacity:0.9;fill:#ffffff;stroke-width:0.26458332"
         d="m -134.30493,415.64407 h -1.56104 a 0.22225,0.22225 0 0 1 -0.22225,-0.22225 v -0.72231 a 0.22225,0.22225 0 0 1 0.22225,-0.22225 h 1.56104 z"
         inkscape:connector-curvature="0" />
      <path
         id="path6137"
         style="fill:#407bff;stroke-width:0.26458332"
         d="m -144.59193,413.16228 h 7.56444 v 1.08479 h -7.56444 a 0.16933333,0.16933333 0 0 1 -0.16933,-0.16934 v -0.74612 a 0.16933333,0.16933333 0 0 1 0.16933,-0.16933 z"
         inkscape:connector-curvature="0" />
      <path
         id="path6139"
         style="opacity:0.3;fill:#ffffff;stroke-width:0.26458332"
         d="m -144.59193,413.16228 h 7.56444 v 1.08479 h -7.56444 a 0.16933333,0.16933333 0 0 1 -0.16933,-0.16934 v -0.74612 a 0.16933333,0.16933333 0 0 1 0.16933,-0.16933 z"
         inkscape:connector-curvature="0" />
      <path
         id="path6141"
         style="opacity:0.2;stroke-width:0.26458332"
         d="m -144.59193,413.16228 h 7.56444 v 1.08479 h -7.56444 a 0.16933333,0.16933333 0 0 1 -0.16933,-0.16934 v -0.74612 a 0.16933333,0.16933333 0 0 1 0.16933,-0.16933 z"
         inkscape:connector-curvature="0" />
      <path
         id="path6143"
         style="fill:#407bff;stroke-width:0.26458332"
         d="m -135.10132,414.24442 h -1.92353 v -1.08479 h 1.92353 a 0.16933333,0.16933333 0 0 1 0.16933,0.16934 v 0.74612 a 0.16933333,0.16933333 0 0 1 -0.16933,0.16933 z"
         inkscape:connector-curvature="0" />
      <path
         id="path6145"
         style="opacity:0.3;fill:#ffffff;stroke-width:0.26458332"
         d="m -135.10132,414.24442 h -1.92353 v -1.08479 h 1.92353 a 0.16933333,0.16933333 0 0 1 0.16933,0.16934 v 0.74612 a 0.16933333,0.16933333 0 0 1 -0.16933,0.16933 z"
         inkscape:connector-curvature="0" />
      <path
         id="path6147"
         style="opacity:0.9;fill:#ffffff;stroke-width:0.26458332"
         d="m -134.93464,414.01159 h -1.56104 a 0.22225,0.22225 0 0 1 -0.22225,-0.22225 v -0.17198 a 0.22225,0.22225 0 0 1 0.22225,-0.22225 h 1.56104 v 0.61383 z"
         inkscape:connector-curvature="0" />
    </g>
    <g
       id="g13661"
       transform="translate(-31.003265,21.114293)">
      <path
         id="path2322"
         d="m -143.23392,-61.042279 c 0,0.237045 -0.19175,0.428768 -0.42792,0.428768 -0.23616,0 -0.42791,-0.191723 -0.42791,-0.428768 0,-0.237005 0.19175,-0.428728 0.42791,-0.428728 0.23617,0 0.42792,0.191723 0.42792,0.428728 z"
         inkscape:connector-curvature="0"
         style="fill:#9871f5;stroke:#9871f5;stroke-width:0.35248813" />
      <path
         id="path2324"
         d="m -139.01675,-61.042279 c 0,0.237045 -0.19175,0.428768 -0.42791,0.428768 -0.23618,0 -0.42793,-0.191723 -0.42793,-0.428768 0,-0.237005 0.19175,-0.428728 0.42793,-0.428728 0.23616,0 0.42791,0.191723 0.42791,0.428728 z"
         inkscape:connector-curvature="0"
         style="fill:#9871f5;stroke:#9871f5;stroke-width:0.35248813" />
      <path
         id="path2326"
         d="m -134.79676,-61.042279 c 0,0.237045 -0.19175,0.428768 -0.42792,0.428768 -0.23582,0 -0.42793,-0.191723 -0.42793,-0.428768 0,-0.237005 0.19211,-0.428728 0.42793,-0.428728 0.23617,0 0.42792,0.191723 0.42792,0.428728 z"
         inkscape:connector-curvature="0"
         style="fill:#9871f5;stroke:#9871f5;stroke-width:0.35248813" />
      <path
         id="path2328"
         d="m -143.23392,-56.816258 c 0,0.237045 -0.19175,0.428768 -0.42792,0.428768 -0.23616,0 -0.42791,-0.191763 -0.42791,-0.428768 0,-0.237019 0.19175,-0.428741 0.42791,-0.428741 0.23617,0 0.42792,0.191722 0.42792,0.428741 z"
         inkscape:connector-curvature="0"
         style="fill:#9871f5;stroke:#9871f5;stroke-width:0.35248813" />
      <path
         id="path2330"
         d="m -139.01675,-56.816231 c 0,0.237018 -0.19175,0.428741 -0.42791,0.428741 -0.23618,0 -0.42793,-0.191723 -0.42793,-0.428741 0,-0.237046 0.19175,-0.428768 0.42793,-0.428768 0.23616,0 0.42791,0.191722 0.42791,0.428768 z"
         inkscape:connector-curvature="0"
         style="fill:#9871f5;stroke:#9871f5;stroke-width:0.35248813" />
      <path
         id="path2332"
         d="m -134.79676,-56.816231 c 0,0.237018 -0.19175,0.428741 -0.42792,0.428741 -0.23582,0 -0.42793,-0.191723 -0.42793,-0.428741 0,-0.237046 0.19211,-0.428768 0.42793,-0.428768 0.23617,0 0.42792,0.191722 0.42792,0.428768 z"
         inkscape:connector-curvature="0"
         style="fill:#9871f5;stroke:#9871f5;stroke-width:0.35248813" />
    </g>
    <g
       transform="translate(-53.323891,-14.557654)"
       id="g13675">
      <path
         style="fill:#9871f5;stroke:#9871f5;stroke-width:0.35248813"
         inkscape:connector-curvature="0"
         d="m -143.23392,-61.042279 c 0,0.237045 -0.19175,0.428768 -0.42792,0.428768 -0.23616,0 -0.42791,-0.191723 -0.42791,-0.428768 0,-0.237005 0.19175,-0.428728 0.42791,-0.428728 0.23617,0 0.42792,0.191723 0.42792,0.428728 z"
         id="path13663" />
      <path
         style="fill:#9871f5;stroke:#9871f5;stroke-width:0.35248813"
         inkscape:connector-curvature="0"
         d="m -139.01675,-61.042279 c 0,0.237045 -0.19175,0.428768 -0.42791,0.428768 -0.23618,0 -0.42793,-0.191723 -0.42793,-0.428768 0,-0.237005 0.19175,-0.428728 0.42793,-0.428728 0.23616,0 0.42791,0.191723 0.42791,0.428728 z"
         id="path13665" />
      <path
         style="fill:#9871f5;stroke:#9871f5;stroke-width:0.35248813"
         inkscape:connector-curvature="0"
         d="m -134.79676,-61.042279 c 0,0.237045 -0.19175,0.428768 -0.42792,0.428768 -0.23582,0 -0.42793,-0.191723 -0.42793,-0.428768 0,-0.237005 0.19211,-0.428728 0.42793,-0.428728 0.23617,0 0.42792,0.191723 0.42792,0.428728 z"
         id="path13667" />
      <path
         style="fill:#9871f5;stroke:#9871f5;stroke-width:0.35248813"
         inkscape:connector-curvature="0"
         d="m -143.23392,-56.816258 c 0,0.237045 -0.19175,0.428768 -0.42792,0.428768 -0.23616,0 -0.42791,-0.191763 -0.42791,-0.428768 0,-0.237019 0.19175,-0.428741 0.42791,-0.428741 0.23617,0 0.42792,0.191722 0.42792,0.428741 z"
         id="path13669" />
      <path
         style="fill:#9871f5;stroke:#9871f5;stroke-width:0.35248813"
         inkscape:connector-curvature="0"
         d="m -139.01675,-56.816231 c 0,0.237018 -0.19175,0.428741 -0.42791,0.428741 -0.23618,0 -0.42793,-0.191723 -0.42793,-0.428741 0,-0.237046 0.19175,-0.428768 0.42793,-0.428768 0.23616,0 0.42791,0.191722 0.42791,0.428768 z"
         id="path13671" />
      <path
         style="fill:#9871f5;stroke:#9871f5;stroke-width:0.35248813"
         inkscape:connector-curvature="0"
         d="m -134.79676,-56.816231 c 0,0.237018 -0.19175,0.428741 -0.42792,0.428741 -0.23582,0 -0.42793,-0.191723 -0.42793,-0.428741 0,-0.237046 0.19211,-0.428768 0.42793,-0.428768 0.23617,0 0.42792,0.191722 0.42792,0.428768 z"
         id="path13673" />
    </g>
  </g>
</svg>
