<?xml version="1.0" encoding="UTF-8" standalone="no"?>
<!-- Created with Inkscape (http://www.inkscape.org/) -->

<svg
   xmlns:dc="http://purl.org/dc/elements/1.1/"
   xmlns:cc="http://creativecommons.org/ns#"
   xmlns:rdf="http://www.w3.org/1999/02/22-rdf-syntax-ns#"
   xmlns:svg="http://www.w3.org/2000/svg"
   xmlns="http://www.w3.org/2000/svg"
   xmlns:sodipodi="http://sodipodi.sourceforge.net/DTD/sodipodi-0.dtd"
   xmlns:inkscape="http://www.inkscape.org/namespaces/inkscape"
   width="136.61357mm"
   height="26.191465mm"
   viewBox="0 0 136.61357 26.191466"
   version="1.1"
   id="svg6623"
   inkscape:version="0.92.3 (2405546, 2018-03-11)"
   sodipodi:docname="logo.svg">
  <defs
     id="defs6617" />
  <sodipodi:namedview
     id="base"
     pagecolor="#ffffff"
     bordercolor="#666666"
     borderopacity="1.0"
     inkscape:pageopacity="0.0"
     inkscape:pageshadow="2"
     inkscape:zoom="0.35"
     inkscape:cx="-864.68975"
     inkscape:cy="-238.17309"
     inkscape:document-units="mm"
     inkscape:current-layer="layer1"
     showgrid="false"
     fit-margin-top="0"
     fit-margin-left="0"
     fit-margin-right="0"
     fit-margin-bottom="0"
     inkscape:window-width="1920"
     inkscape:window-height="1052"
     inkscape:window-x="0"
     inkscape:window-y="0"
     inkscape:window-maximized="1" />
  <metadata
     id="metadata6620">
    <rdf:RDF>
      <cc:Work
         rdf:about="">
        <dc:format>image/svg+xml</dc:format>
        <dc:type
           rdf:resource="http://purl.org/dc/dcmitype/StillImage" />
        <dc:title></dc:title>
      </cc:Work>
    </rdf:RDF>
  </metadata>
  <g
     inkscape:label="Layer 1"
     inkscape:groupmode="layer"
     id="layer1"
     transform="translate(87.205599,-59.625238)">
    <g
       aria-label="Tutoria"
       style="font-style:normal;font-variant:normal;font-weight:normal;font-stretch:normal;font-size:33.7529068px;line-height:1.25;font-family:Audiowide;-inkscape-font-specification:'Audiowide, Normal';font-variant-ligatures:normal;font-variant-caps:normal;font-variant-numeric:normal;font-feature-settings:normal;text-align:start;letter-spacing:0px;word-spacing:0px;writing-mode:lr-tb;text-anchor:start;fill:#ffffff;fill-opacity:1;stroke:#ffffff;stroke-width:0.8438226;stroke-opacity:1"
       id="text3404">
      <path
         d="m -63.595046,66.046201 h -9.443562 v 19.34859 h -4.285037 v -19.34859 h -9.460043 v -4.285037 h 23.188642 z"
         style="font-style:normal;font-variant:normal;font-weight:normal;font-stretch:normal;font-size:33.7529068px;font-family:Audiowide;-inkscape-font-specification:'Audiowide, Normal';font-variant-ligatures:normal;font-variant-caps:normal;font-variant-numeric:normal;font-feature-settings:normal;text-align:start;writing-mode:lr-tb;text-anchor:start;fill:#ffffff;fill-opacity:1;stroke:#ffffff;stroke-width:0.8438226;stroke-opacity:1"
         id="path11876"
         inkscape:connector-curvature="0" />
      <path
         d="m -42.285226,83.235791 q 0,0.461466 -0.164809,0.857008 -0.164809,0.395542 -0.461466,0.692198 -0.280175,0.280175 -0.675717,0.444985 -0.379061,0.164809 -0.824046,0.164809 h -9.690776 q -0.791083,0 -1.697534,-0.18129 -0.889969,-0.18129 -1.763457,-0.576832 -0.873488,-0.412023 -1.697534,-1.021817 -0.807565,-0.626274 -1.417358,-1.499763 -0.609794,-0.889969 -0.988855,-2.043633 -0.36258,-1.153664 -0.36258,-2.603984 v -9.888547 h 4.285037 v 9.888547 q 0,0.840527 0.280175,1.516244 0.296657,0.659237 0.791084,1.137183 0.494427,0.477946 1.153664,0.741641 0.675717,0.247214 1.45032,0.247214 h 7.498815 V 67.578925 h 4.285037 z"
         style="font-style:normal;font-variant:normal;font-weight:normal;font-stretch:normal;font-size:33.7529068px;font-family:Audiowide;-inkscape-font-specification:'Audiowide, Normal';font-variant-ligatures:normal;font-variant-caps:normal;font-variant-numeric:normal;font-feature-settings:normal;text-align:start;writing-mode:lr-tb;text-anchor:start;fill:#ffffff;fill-opacity:1;stroke:#ffffff;stroke-width:0.8438226;stroke-opacity:1"
         id="path11878"
         inkscape:connector-curvature="0" />
      <path
         d="m -22.030185,71.863962 h -7.482334 v 13.530829 h -4.33448 V 71.863962 h -5.570548 v -4.285037 h 5.570548 v -5.817761 h 4.33448 v 5.817761 h 7.482334 z"
         style="font-style:normal;font-variant:normal;font-weight:normal;font-stretch:normal;font-size:33.7529068px;font-family:Audiowide;-inkscape-font-specification:'Audiowide, Normal';font-variant-ligatures:normal;font-variant-caps:normal;font-variant-numeric:normal;font-feature-settings:normal;text-align:start;writing-mode:lr-tb;text-anchor:start;fill:#ffffff;fill-opacity:1;stroke:#ffffff;stroke-width:0.8438226;stroke-opacity:1"
         id="path11880"
         inkscape:connector-curvature="0" />
      <path
         d="m 0.13663844,79.379258 q 0,1.104221 -0.2801755,1.99419 -0.28017549,0.873489 -0.74164101,1.549206 -0.46146553,0.659236 -1.07125923,1.137183 -0.6097937,0.461465 -1.2855111,0.758122 -0.6592365,0.296656 -1.3514348,0.444984 -0.6757173,0.131848 -1.2855111,0.131848 h -7.7295477 q -0.889969,0 -1.944747,-0.313138 -1.054779,-0.313137 -1.961229,-1.021816 -0.889969,-0.72516 -1.499763,-1.862343 -0.593313,-1.153664 -0.593313,-2.818236 v -5.801281 q 0,-1.648091 0.593313,-2.785274 0.609794,-1.153664 1.499763,-1.862343 0.90645,-0.72516 1.961229,-1.038297 1.054778,-0.313138 1.944747,-0.313138 h 7.7295477 q 1.6480912,0 2.801755,0.593313 1.1536638,0.593313 1.862343,1.499763 0.70867919,0.889969 1.02181651,1.944748 0.32961823,1.054778 0.32961823,1.961228 z M -4.1483986,73.610939 q 0,-0.889969 -0.4449846,-1.318473 -0.4449846,-0.428504 -1.2855111,-0.428504 H -13.57548 q -0.857007,0 -1.301992,0.444985 -0.444985,0.428504 -0.444985,1.26903 v 5.801281 q 0,0.840526 0.444985,1.285511 0.444985,0.444985 1.301992,0.444985 h 7.6965857 q 0.8734883,0 1.301992,-0.444985 0.4285037,-0.444985 0.4285037,-1.285511 z"
         style="font-style:normal;font-variant:normal;font-weight:normal;font-stretch:normal;font-size:33.7529068px;font-family:Audiowide;-inkscape-font-specification:'Audiowide, Normal';font-variant-ligatures:normal;font-variant-caps:normal;font-variant-numeric:normal;font-feature-settings:normal;text-align:start;writing-mode:lr-tb;text-anchor:start;fill:#ffffff;fill-opacity:1;stroke:#ffffff;stroke-width:0.8438226;stroke-opacity:1"
         id="path11882"
         inkscape:connector-curvature="0" />
      <path
         d="M 19.353384,71.863962 H 9.7120503 q -0.8734883,0 -1.3184729,0.444985 -0.4449846,0.428504 -0.4449846,1.26903 V 85.394791 H 3.6635558 V 73.577977 q 0,-1.104221 0.2801755,-1.977709 0.2801754,-0.873489 0.741641,-1.532725 Q 5.1633187,69.391826 5.7731124,68.93036 6.3829062,68.452414 7.0421426,68.155757 7.71786,67.859101 8.3935774,67.727253 9.0857756,67.578925 9.6790885,67.578925 h 9.6742955 z"
         style="font-style:normal;font-variant:normal;font-weight:normal;font-stretch:normal;font-size:33.7529068px;font-family:Audiowide;-inkscape-font-specification:'Audiowide, Normal';font-variant-ligatures:normal;font-variant-caps:normal;font-variant-numeric:normal;font-feature-settings:normal;text-align:start;writing-mode:lr-tb;text-anchor:start;fill:#ffffff;fill-opacity:1;stroke:#ffffff;stroke-width:0.8438226;stroke-opacity:1"
         id="path11884"
         inkscape:connector-curvature="0" />
      <path
         d="m 26.506094,63.920163 h -4.285037 v -3.873014 h 4.285037 z m 0,21.474628 H 22.221057 V 67.578925 h 4.285037 z"
         style="font-style:normal;font-variant:normal;font-weight:normal;font-stretch:normal;font-size:33.7529068px;font-family:Audiowide;-inkscape-font-specification:'Audiowide, Normal';font-variant-ligatures:normal;font-variant-caps:normal;font-variant-numeric:normal;font-feature-settings:normal;text-align:start;writing-mode:lr-tb;text-anchor:start;fill:#ffffff;fill-opacity:1;stroke:#ffffff;stroke-width:0.8438226;stroke-opacity:1"
         id="path11886"
         inkscape:connector-curvature="0" />
      <path
         d="m 48.986063,79.494624 q 0,0.88997 -0.313137,1.928267 -0.313137,1.021816 -1.021816,1.911786 -0.692199,0.873488 -1.829382,1.466801 -1.120702,0.593313 -2.735831,0.593313 H 35.35635 q -0.88997,0 -1.928267,-0.313138 -1.021817,-0.313137 -1.911786,-1.005335 -0.873488,-0.708679 -1.466801,-1.829381 -0.593313,-1.137183 -0.593313,-2.752313 0,-0.889969 0.313138,-1.928266 0.313137,-1.038298 1.005335,-1.911786 0.708679,-0.889969 1.829381,-1.483282 1.137183,-0.593313 2.752313,-0.593313 h 7.729547 v 4.087266 H 35.35635 q -0.873489,0 -1.351435,0.54387 -0.477947,0.527389 -0.477947,1.318473 0,0.840527 0.543871,1.318473 0.560351,0.461466 1.318472,0.461466 h 7.696586 q 0.873488,0 1.351435,-0.52739 0.477946,-0.527389 0.477946,-1.318472 v -5.982571 q 0,-0.840527 -0.527389,-1.334954 -0.510908,-0.494428 -1.301992,-0.494428 h -9.4106 v -4.070785 h 9.4106 q 0.889969,0 1.911786,0.313138 1.038297,0.313137 1.911786,1.021816 0.889969,0.692198 1.483282,1.829381 0.593312,1.120702 0.593312,2.735832 z"
         style="font-style:normal;font-variant:normal;font-weight:normal;font-stretch:normal;font-size:33.7529068px;font-family:Audiowide;-inkscape-font-specification:'Audiowide, Normal';font-variant-ligatures:normal;font-variant-caps:normal;font-variant-numeric:normal;font-feature-settings:normal;text-align:start;writing-mode:lr-tb;text-anchor:start;fill:#ffffff;fill-opacity:1;stroke:#ffffff;stroke-width:0.8438226;stroke-opacity:1"
         id="path11888"
         inkscape:connector-curvature="0" />
    </g>
  </g>
</svg>
